<svg width="83" height="64" viewBox="0 0 83 64" fill="none" xmlns="http://www.w3.org/2000/svg">
<path d="M6.7613 55.9981V43.9663H4.78845V55.9981H6.7613ZM7.96799 51.987C7.96799 54.4451 9.61762 56.1928 12.1236 56.1928C14.6295 56.1928 16.2792 54.4451 16.2792 51.987C16.2792 49.5289 14.6295 47.7827 12.1236 47.7827C9.61762 47.7827 7.96799 49.5289 7.96799 51.987ZM9.9568 51.987C9.9568 50.548 10.8139 49.5449 12.1236 49.5449C13.4332 49.5449 14.2904 50.548 14.2904 51.987C14.2904 53.4108 13.4332 54.4291 12.1236 54.4291C10.8147 54.4291 9.9568 53.4108 9.9568 51.987ZM16.9432 51.8258C16.9432 54.1546 18.4459 55.8361 20.6941 55.8361C21.8577 55.8361 22.8601 55.3676 23.3613 54.5911V55.9494C23.3613 57.2591 22.5369 58.133 21.1626 58.133C19.9336 58.133 19.0932 57.5344 18.9799 56.4833H16.991C17.2496 58.5695 18.8506 59.9278 21.0493 59.9278C23.6366 59.9278 25.2855 58.2295 25.2855 55.5943V48.0094H23.5393L23.4259 49.0924C22.9407 48.252 21.9383 47.7508 20.758 47.7508C18.4787 47.7508 16.9432 49.481 16.9432 51.8258ZM18.9471 51.7779C18.9471 50.4515 19.7883 49.481 21.0333 49.481C22.3916 49.481 23.2967 50.4674 23.2967 51.7771C23.2967 53.1035 22.3916 54.1218 21.0333 54.1218C19.8043 54.1218 18.9471 53.1202 18.9471 51.7779ZM26.2615 51.987C26.2615 54.4451 27.9111 56.1928 30.4171 56.1928C32.9231 56.1928 34.5727 54.4451 34.5727 51.987C34.5727 49.5289 32.9231 47.7827 30.4171 47.7827C27.9111 47.7827 26.2615 49.5289 26.2615 51.987ZM28.2503 51.987C28.2503 50.548 29.1075 49.5449 30.4171 49.5449C31.7267 49.5449 32.5839 50.548 32.5839 51.987C32.5839 53.4108 31.7267 54.4291 30.4171 54.4291C29.1075 54.4291 28.2503 53.4108 28.2503 51.987ZM36.7075 46.3765C37.354 46.3765 37.8879 45.8578 37.8879 45.1953C37.8856 44.8843 37.7599 44.587 37.5384 44.3686C37.3169 44.1503 37.0177 44.0288 36.7067 44.031C36.5533 44.029 36.4011 44.0578 36.259 44.1157C36.1169 44.1735 35.9878 44.2592 35.8794 44.3677C35.7709 44.4763 35.6853 44.6054 35.6276 44.7475C35.5698 44.8897 35.5411 45.0419 35.5431 45.1953C35.5431 45.8578 36.0443 46.3765 36.7075 46.3765ZM35.7211 55.9981H37.6932V48.0094H35.7219L35.7211 55.9981ZM39.4218 59.7012H41.3452V54.8984C41.8472 55.7236 42.9301 56.208 44.1265 56.208C46.4872 56.208 47.8934 54.3964 47.8615 51.9064C47.8136 49.4004 46.3746 47.7668 44.1105 47.7668C42.8974 47.7668 41.7985 48.3007 41.3132 49.2224L41.1999 48.0094H39.4218V59.7012ZM41.4266 52.0037C41.4266 50.5648 42.2997 49.5616 43.674 49.5616C45.0482 49.5616 45.8727 50.5808 45.8727 52.0037C45.8727 53.4267 45.0482 54.4299 43.674 54.4299C42.2997 54.4299 41.4266 53.4427 41.4266 52.0037ZM48.3627 53.6047C48.4273 55.1897 49.6555 56.208 51.5637 56.208C53.4392 56.208 54.7161 55.2056 54.7161 53.6534C54.7161 52.5049 54.0059 51.7284 52.6954 51.4052L51.2892 51.066C50.6906 50.904 50.2868 50.6941 50.2868 50.1761C50.2868 49.6263 50.7234 49.2384 51.4345 49.2384C52.1783 49.2384 52.6635 49.659 52.6635 50.3541H54.4584C54.3937 48.7691 53.2134 47.7668 51.4831 47.7668C49.7689 47.7668 48.4919 48.7691 48.4919 50.2895C48.4919 51.3246 49.0905 52.1809 50.626 52.5855L52.017 52.9415C52.5342 53.0875 52.8574 53.3293 52.8574 53.7827C52.8574 54.4131 52.2589 54.7044 51.5318 54.7044C50.6587 54.7044 50.1575 54.2998 50.1575 53.6047H48.3627ZM58.8087 56.2088C59.8917 56.2088 60.9268 55.7068 61.3953 54.9638L61.5245 55.9981H63.3681V48.0094H61.3953V52.1977C61.3953 53.6374 60.8454 54.4459 59.5517 54.4459C58.5501 54.4459 57.8542 53.9606 57.8542 52.311V48.0094H55.8821V53.0061C55.8821 54.9143 56.9164 56.2088 58.8087 56.2088ZM67.0816 55.9981V51.4052C67.0816 50.1123 67.8413 49.4978 68.7791 49.4978C69.7168 49.4978 70.3313 50.0955 70.3313 51.2272V55.9981H72.2555V51.4211C72.2555 50.1123 72.9993 49.4978 73.937 49.4978C74.8907 49.4978 75.5052 50.0955 75.5052 51.2272V55.9981H77.4135V50.7747C77.4135 48.9311 76.3951 47.766 74.455 47.766C73.2419 47.766 72.2882 48.3485 71.8995 49.2871C71.4638 48.3485 70.5907 47.7668 69.2643 47.7668C68.3265 47.7668 67.4862 48.2033 67.0169 48.9152L66.9203 48.0094H65.1087V55.9981H67.0816Z" fill="#152C4F"/>
<path d="M36.3021 33.0741C33.7036 37.7508 28.4123 39.9759 23.062 39.9759H1.59616C23.9423 37.1826 39.5048 26.0095 41.5 10.447C43.4952 26.0095 59.0577 37.1826 81.4039 39.9759H59.938C54.5877 39.9759 49.2964 37.7508 46.6979 33.0741C43.8855 28.0127 42.093 22.2849 41.5 16.0336C40.907 22.2849 39.1146 28.0127 36.3021 33.0741Z" fill="#1A4688"/>
<path d="M24.0261 31.4212C22.7397 32.1438 21.4207 32.8066 20.0732 33.4076C19.2864 30.6875 19.0008 27.847 19.2305 25.0246C19.5317 21.2885 20.7336 17.681 22.7332 14.5108C24.7132 11.3684 27.4384 8.76355 30.6669 6.92744C33.8692 5.10846 37.4776 4.12404 41.16 4.06474C44.8412 4.00938 48.4772 4.88132 51.7329 6.60023C55.0147 8.33461 57.8167 10.8536 59.8893 13.933C61.9823 17.0404 63.2907 20.6089 63.7025 24.3327C64.0421 27.3795 63.7785 30.4634 62.9268 33.4084C61.5793 32.8074 60.2603 32.1446 58.9739 31.422C59.504 29.2684 59.6499 27.0382 59.4049 24.8339C59.0726 21.8307 58.0172 18.9528 56.3291 16.4469C54.6575 13.9638 52.3979 11.9325 49.7513 10.5339C47.1258 9.14842 44.1938 8.44582 41.2255 8.49087C38.2561 8.53861 35.3465 9.3323 32.7642 10.7989C30.1606 12.2794 27.9629 14.3798 26.3661 16.9138C24.7544 19.4701 23.7859 22.3787 23.5433 25.3909C23.3781 27.4213 23.5433 29.4587 24.0269 31.4212H24.0261Z" fill="#7FB5E6"/>
</svg>
