<svg width="174" height="64" viewBox="0 0 174 64" fill="none" xmlns="http://www.w3.org/2000/svg">
<g clip-path="url(#clip0_1_73)">
<path d="M169.42 19.7296L173.57 23.9086C173.715 24.0237 173.823 24.1795 173.879 24.356C173.963 25.3841 173.185 25.4407 172.389 25.4984C172.045 25.5233 171.698 25.5481 171.417 25.6525C170.021 26.0295 168.776 26.8271 167.85 27.9368C166.923 29.0465 166.361 30.4145 166.24 31.8549C166.15 32.0215 166.015 32.1586 165.849 32.2497C165.684 32.3407 165.495 32.3818 165.307 32.3679C165.088 32.3485 164.883 32.2528 164.728 32.0975L163.366 30.7254C163.376 30.8198 163.376 30.9133 163.376 30.9879V31.8927C163.376 31.9493 163.378 32.005 163.371 32.0597C163.362 32.1279 163.335 32.1924 163.293 32.2466V32.3312C163.293 32.3739 163.298 32.4137 163.302 32.4544C163.312 32.537 163.323 32.6225 163.293 32.7408C163.263 32.8522 163.26 32.9814 163.256 33.0977C163.256 33.1592 163.253 33.2206 163.246 33.2817C163.236 33.3543 163.236 33.4308 163.23 33.5084C163.226 33.5814 163.209 33.6531 163.18 33.7202C163.141 33.8075 163.119 33.9018 163.118 33.9976C163.115 34.0413 163.115 34.0861 163.115 34.1308L163.059 34.4201L160.942 44.5121L160.774 45.2678L160.708 46.3685L159.776 51.1341L159.627 51.8808H84.1404L83.7775 51.5169L83.7119 51.8351H75.6353L71.1402 47.3111L71.5687 45.2678H69.0323L67.4553 43.673C65.4992 45.0974 63.1315 45.8441 60.7121 45.7997C58.1111 45.902 55.5756 44.9696 53.6606 43.2066L51.2077 40.7349L50.6758 43.2156C50.6111 43.5706 50.5266 43.9056 50.4332 44.2327L50.3496 44.541L50.2104 44.9884C50.1985 45.0271 50.1825 45.0644 50.1627 45.0998C50.0235 45.5114 49.8595 45.9131 49.6685 46.3028C49.6736 46.318 49.6736 46.3344 49.6685 46.3496C49.6443 46.4012 49.6164 46.451 49.585 46.4987C49.4438 46.7771 49.2887 47.0486 49.1177 47.3101C49.0869 47.3578 49.0581 47.4085 49.0342 47.4592L48.9318 47.5716C48.7031 47.8987 48.4545 48.2099 48.1861 48.5042C48.1136 48.5763 48.0393 48.6466 47.9633 48.715C47.8868 48.7846 47.8092 48.8542 47.7287 48.9238L47.5229 49.1197C47.2873 49.3158 47.0417 49.4997 46.7871 49.6705C44.8645 50.8094 42.6469 51.3514 40.4157 51.2275C37.3384 51.2275 34.8756 50.3327 33.3175 48.7657L28.9337 44.354C27.1828 45.3448 25.2004 45.8533 23.1887 45.8276C20.5954 45.9078 18.075 44.9625 16.174 43.1967L13.7211 40.7259L12.9287 44.54L12.7696 45.2956H4.51406L0 40.7448L0.233657 39.6441L5.19514 15.8131L5.34429 15.0674H13.6267L13.8415 15.2722V15.0674H69.6467L69.8516 15.2722V15.0674H77.9291L82.4432 19.6192L82.2195 20.7099L81.9769 21.9031H84.2995L84.6634 22.268C85.6856 21.669 86.8464 21.3475 88.0311 21.3353C88.902 21.3181 89.7669 21.4835 90.5701 21.8209C91.3733 22.1583 92.0968 22.6601 92.6943 23.2941L92.573 23.1539L94.7644 25.3642C96.0987 22.8556 99.0925 21.3353 103.159 21.3353C106.312 21.3353 108.635 22.1367 110.043 23.5924L111.628 25.1872L112.16 22.6219L112.318 21.8762H120.405L122.719 24.1989L123.045 22.6319L123.204 21.8862H139.116L139.545 22.3137C140.623 21.6781 141.857 21.3554 143.109 21.3821C143.861 21.3528 144.611 21.4906 145.305 21.7856C145.998 22.0806 146.618 22.5255 147.118 23.0883L147.043 23.0008C146.999 22.9475 146.954 22.8961 146.906 22.8467L147.716 23.658C148.422 22.9267 149.27 22.3475 150.209 21.956C151.147 21.5644 152.155 21.3688 153.172 21.3811C153.709 21.348 154.249 21.3936 154.773 21.5163L153.891 20.6264C153.8 20.5303 153.732 20.4162 153.689 20.2915C153.646 20.1668 153.63 20.0345 153.643 19.9033C153.655 19.7721 153.695 19.6449 153.76 19.5303C153.825 19.4157 153.913 19.3162 154.02 19.2384C154.162 19.134 154.33 19.072 154.506 19.0594H155.215C155.406 19.0405 155.596 19.0127 155.784 18.9749C156.775 18.7668 157.708 18.341 158.515 17.7281C159.321 17.1152 159.982 16.3307 160.448 15.4313C160.489 15.3616 160.526 15.2899 160.559 15.2165V15.1698C160.88 14.4788 161.076 13.7366 161.138 12.9774C161.154 12.7414 161.26 12.5204 161.433 12.3594C161.606 12.1983 161.834 12.1093 162.071 12.1104H162.145C162.287 12.124 162.423 12.1698 162.545 12.2442C162.666 12.3187 162.769 12.4198 162.845 12.5399C163.516 13.1921 167.247 16.9883 167.247 16.9883C167.558 17.3224 167.535 17.7569 167.511 18.1954C167.496 18.4678 167.481 18.7413 167.545 18.9938C167.878 19.0532 168.215 19.0845 168.553 19.0873C168.747 19.0912 168.934 19.1552 169.089 19.2705C169.245 19.3858 169.36 19.5456 169.42 19.7296Z" fill="black"/>
<path d="M42.6906 22.7979H48.5858L45.2837 38.4579C44.6772 41.4248 43.5209 43.1221 41.7669 44.3252C39.9937 45.3544 37.9576 45.8412 35.9106 45.7251C32.011 45.7251 28.2705 44.0925 27.8977 40.1283H33.8296C34.0165 41.0609 34.8746 41.5929 36.1801 41.5929C37.9429 41.5929 38.7553 40.529 39.1182 38.8596L39.4731 37.1345H39.3419C38.8214 37.7066 38.1901 38.167 37.4862 38.4876C36.7824 38.8083 36.0207 38.9825 35.2474 38.9998C31.8151 38.9998 29.0918 36.2665 29.1475 32.2655C29.222 27.6023 32.2626 22.3037 37.3652 22.3037C38.332 22.239 39.297 22.4525 40.1463 22.9189C40.9956 23.3853 41.6935 24.0851 42.1577 24.9356H42.2611L42.6896 22.7999L42.6906 22.7979ZM37.6257 34.6249C39.8927 34.6249 41.1515 32.0139 41.1893 29.7658C41.1893 28.2645 40.6016 26.7253 38.8666 26.7253C36.4972 26.7253 35.2941 29.3651 35.2574 31.6311C35.2574 33.1613 35.844 34.6249 37.579 34.6249M103.803 35.129C103.803 36.1273 102.944 36.528 101.816 36.528C99.9506 36.528 99.3261 35.5953 99.3162 34.2898H93.4499C93.3475 39.1579 97.6935 40.3619 101.555 40.3619C106.489 40.3619 109.689 38.2252 109.754 33.9627C109.754 30.5583 106.853 29.5232 103.999 28.861C101.807 28.3579 100.846 27.994 100.855 27.1638C100.865 26.3336 101.845 25.9975 102.805 25.9975C104.008 25.9975 104.829 26.427 104.913 27.5277H110.612C110.547 23.4611 106.881 22.2669 103.15 22.2669C98.6162 22.2669 95.0815 24.3281 95.0269 28.2267C95.0269 31.2951 97.097 32.4236 100.221 33.226C102.226 33.7579 103.821 33.9259 103.803 35.129ZM147.389 25.3254H147.287C147.033 24.4069 146.472 23.6029 145.699 23.0466C144.925 22.4904 143.984 22.2152 143.033 22.2669C140.497 22.2669 138.948 23.5257 137.484 25.4288H137.381L137.922 22.7979H131.989L128.436 39.7922H134.639L136.504 30.6239C136.933 28.6274 137.95 27.2284 139.489 27.2284C141.028 27.2284 141.233 28.4603 140.916 29.9617L138.864 39.7922H145.066L146.933 30.6239C147.361 28.4971 148.378 27.2284 149.916 27.2284C151.456 27.2284 151.661 28.3947 151.344 29.9617L149.292 39.7922H155.494L157.715 29.6903C158.647 25.4288 157.22 22.2292 153.126 22.2292C151.987 22.2245 150.865 22.5056 149.863 23.0467C148.861 23.5878 148.01 24.3716 147.389 25.3264V25.3254ZM1.13745 39.7932H7.54662L12.4982 15.9612H6.09993L1.13845 39.7922L1.13745 39.7932ZM20.4266 22.2958C24.7547 22.2958 28.886 24.6652 28.8213 30.0283C28.7657 35.8946 24.7736 40.2884 18.6727 40.2884C14.4758 40.2884 10.2789 37.9558 10.3535 32.6204C10.4559 26.8934 14.3923 22.2958 20.4266 22.2958ZM18.8506 36.1283C21.5829 36.1283 22.5812 32.1641 22.5812 29.8325C22.5812 28.1621 22.0682 26.5304 20.2685 26.5304C17.564 26.5304 16.6394 30.7273 16.6394 32.8919C16.6394 34.6259 17.1246 36.1283 18.8874 36.1283M14.6359 15.9612L13.7022 20.7278H67.512L68.4446 15.9612H14.6339H14.6359ZM57.9141 22.2948C62.2413 22.2948 66.3735 24.6642 66.3089 30.0273C66.2522 35.8936 62.2512 40.2874 56.1513 40.2874C51.9534 40.2874 47.7565 37.9548 47.84 32.6194C47.9713 26.8924 51.9067 22.2948 57.9141 22.2948ZM56.365 36.1273C59.0993 36.1273 60.0966 32.1631 60.0966 29.8315C60.0966 28.1611 59.5736 26.5294 57.774 26.5294C55.0784 26.5294 54.1448 30.7263 54.1448 32.8909C54.1448 34.6249 54.631 36.1273 56.4028 36.1273M70.645 15.9612L69.7113 20.7278H75.9058L76.8384 15.9612H70.645ZM65.6825 39.7922H71.8849L75.4384 22.7989H69.1993L65.6825 39.7922ZM85.4748 40.3619C84.4876 40.4318 83.5005 40.2253 82.6241 39.7655C81.7477 39.3057 81.0168 38.6109 80.5133 37.7589H80.4099L78.5446 46.3595H72.2677L77.3047 22.7979H83.1988L82.7325 25.0649C83.3482 24.2277 84.1457 23.541 85.065 23.0564C85.9842 22.5718 87.0014 22.3019 88.04 22.2669C91.7706 22.2669 93.963 25.4656 93.8973 29.6257C93.8138 34.8586 91.0994 40.3619 85.438 40.3619H85.4748ZM85.2321 27.0793C82.8359 27.0793 81.3614 30.1486 81.3246 32.5081C81.3246 34.1497 81.9023 35.9781 83.87 35.9781C86.4352 35.9781 87.4892 32.5827 87.517 30.3157C87.517 28.7775 87.0696 27.0793 85.2321 27.0793ZM121.096 37.1156H121.198L120.658 39.8111H126.552L130.106 22.8168H123.913L121.935 32.3122C121.535 34.2809 120.321 35.315 118.792 35.315C117.262 35.315 116.926 33.8792 117.234 32.3778L119.24 22.8168H113.046L110.854 33.3105C109.921 37.8802 112.048 40.3431 115.612 40.3431C116.73 40.3322 117.827 40.0264 118.79 39.4564C119.753 38.8864 120.548 38.0724 121.096 37.0967V37.1156ZM154.366 46.443L155.298 41.6764H81.7442L80.8116 46.443H154.366Z" fill="white"/>
<path d="M161.035 27.461C160.942 27.4543 160.854 27.4201 160.781 27.3629C160.709 27.3057 160.655 27.228 160.627 27.1399C160.608 27.0812 160.601 27.0194 160.606 26.9579C160.683 26.1272 160.584 25.2895 160.316 24.4997C160.047 23.7098 159.615 22.9855 159.047 22.3743C158.479 21.7633 157.788 21.2791 157.02 20.9536C156.252 20.628 155.424 20.4684 154.59 20.4851C154.466 20.4851 154.347 20.436 154.26 20.3486C154.172 20.2611 154.123 20.1425 154.123 20.0188C154.123 19.8951 154.172 19.7765 154.26 19.6891C154.347 19.6016 154.466 19.5525 154.59 19.5525C154.813 19.5664 155.038 19.5664 155.262 19.5525C156.919 19.3761 158.462 18.6276 159.626 17.4358C160.791 16.244 161.503 14.6835 161.641 13.023C161.651 12.9062 161.704 12.7973 161.791 12.718C161.877 12.6386 161.99 12.5946 162.107 12.5945C162.169 12.5989 162.229 12.6154 162.284 12.6432C162.339 12.6709 162.387 12.7093 162.427 12.7561C162.467 12.803 162.498 12.8573 162.516 12.9159C162.535 12.9745 162.542 13.0363 162.537 13.0976C162.46 13.9275 162.558 14.7644 162.826 15.5536C163.094 16.3429 163.526 17.0668 164.092 17.6783C164.659 18.2887 165.349 18.7728 166.116 19.099C166.883 19.4252 167.71 19.5861 168.543 19.5714C168.635 19.5719 168.725 19.5995 168.801 19.6508C168.878 19.702 168.937 19.7747 168.972 19.8596C169.008 19.9445 169.017 20.0379 168.999 20.1281C168.982 20.2183 168.938 20.3014 168.873 20.3668C168.786 20.4545 168.667 20.5038 168.543 20.504C166.772 20.5335 165.073 21.2161 163.773 22.4209C162.474 23.6257 161.665 25.2679 161.502 27.0325C161.492 27.1497 161.439 27.2589 161.352 27.3385C161.265 27.4181 161.152 27.4622 161.035 27.462V27.461Z" fill="white"/>
</g>
<defs>
<clipPath id="clip0_1_73">
<rect width="174" height="39.7714" fill="white" transform="translate(0 12.1094)"/>
</clipPath>
</defs>
</svg>
