<svg width="70" height="64" viewBox="0 0 70 64" fill="none" xmlns="http://www.w3.org/2000/svg">
<path d="M44.9419 31.5158C44.9419 43.4311 35.2819 53.0911 23.3666 53.0911C11.4503 53.0911 1.79123 43.4311 1.79123 31.5158C1.79123 19.6004 11.4493 9.94043 23.3666 9.94043C35.2819 9.94043 44.9419 19.6004 44.9419 31.5158Z" fill="#68DBFF"/>
<path d="M68.2088 31.5158C68.2088 43.4311 58.6437 53.0911 46.8444 53.0911C35.046 53.0911 25.4819 43.4311 25.4819 31.5158C25.4819 19.6004 35.0451 9.94043 46.8444 9.94043C58.6427 9.94043 68.2088 19.6004 68.2088 31.5158Z" fill="#FF7917"/>
<path d="M35.163 49.5834C41.0507 45.7305 44.9419 39.0776 44.9419 31.5157C44.9419 23.9538 41.0516 17.3009 35.163 13.449C32.1798 15.4237 29.7336 18.1081 28.0437 21.2614C26.3539 24.4147 25.4733 27.9382 25.4809 31.5157C25.4731 35.0934 26.3536 38.617 28.0435 41.7705C29.7334 44.924 32.1797 47.6085 35.163 49.5834Z" fill="#5D2C02"/>
</svg>
