<svg width="83" height="64" viewBox="0 0 83 64" fill="none" xmlns="http://www.w3.org/2000/svg">
<g clip-path="url(#clip0_1_83)">
<path d="M41.5 0.620117L80.7188 24.1671V39.8169L41.5 63.3701L2.28125 39.8169V24.1671L41.5 0.620117Z" fill="#A5B4FC"/>
<path fill-rule="evenodd" clip-rule="evenodd" d="M2.28125 24.1671L41.5 0.620117L80.7188 24.1671V39.8169L41.5 63.3701L2.28125 39.8169V24.1671ZM41.5 53.3772L72.3997 34.8204V29.162L41.5 47.714L10.6019 29.1635V34.822L41.5 53.3772ZM41.5 39.0608L65.1913 24.8369L59.4183 21.3731L41.5 32.1332L23.5802 21.3747L17.8087 24.8385L41.5 39.0608ZM41.5 23.4799L52.213 17.0481L41.5 10.6209L30.787 17.0496L41.5 23.4815V23.4799Z" fill="#4F46E5"/>
<path d="M41.5 0.620117L2.28125 24.1671V39.8169L41.5 63.3701V0.620117Z" fill="#A5B4FC" fill-opacity="0.3"/>
</g>
<defs>
<clipPath id="clip0_1_83">
<rect width="78.4375" height="62.75" fill="white" transform="translate(2.28125 0.620117)"/>
</clipPath>
</defs>
</svg>
