<svg width="179" height="64" viewBox="0 0 179 64" fill="none" xmlns="http://www.w3.org/2000/svg">
<path fill-rule="evenodd" clip-rule="evenodd" d="M88.4966 13.0076C89.3125 12.217 90.4065 11.779 91.5425 11.788C92.6785 11.797 93.7654 12.2523 94.5686 13.0557C95.3718 13.8591 95.8269 14.9461 95.8357 16.0821C95.8445 17.2181 95.4062 18.312 94.6155 19.1277L84.3139 29.4305C82.8632 27.4805 82.1623 25.0737 82.3391 22.6497C82.5159 20.2256 83.5587 17.946 85.2771 16.2272L88.4966 13.0076Z" fill="#4F9E91"/>
<path fill-rule="evenodd" clip-rule="evenodd" d="M103.225 36.2532C104.036 37.0646 104.492 38.1652 104.492 39.3127C104.492 40.4602 104.036 41.5607 103.225 42.3721C102.413 43.1835 101.313 43.6394 100.165 43.6394C99.0176 43.6394 97.9171 43.1835 97.1057 42.3721L86.8028 32.0705C88.7529 30.6198 91.1597 29.9189 93.5837 30.0957C96.0077 30.2725 98.2873 31.3153 100.006 33.0337L103.225 36.2532Z" fill="#EBE1C5"/>
<path fill-rule="evenodd" clip-rule="evenodd" d="M79.9801 50.9813C79.5783 51.3831 79.1014 51.7018 78.5764 51.9192C78.0515 52.1366 77.4889 52.2486 76.9207 52.2486C76.3525 52.2486 75.7899 52.1366 75.2649 51.9192C74.74 51.7018 74.263 51.3831 73.8612 50.9813C73.4595 50.5795 73.1408 50.1026 72.9233 49.5776C72.7059 49.0527 72.594 48.49 72.594 47.9219C72.594 47.3537 72.7059 46.791 72.9233 46.2661C73.1408 45.7412 73.4595 45.2642 73.8612 44.8624L84.1629 34.5596C85.6138 36.5095 86.3149 38.9164 86.138 41.3405C85.9612 43.7646 84.9183 46.0442 83.1997 47.763L79.9801 50.9813Z" fill="#EBCC6E"/>
<path fill-rule="evenodd" clip-rule="evenodd" d="M65.2522 27.737C64.8364 27.3383 64.5044 26.8607 64.2756 26.3321C64.0468 25.8035 63.9258 25.2346 63.9198 24.6586C63.9137 24.0827 64.0227 23.5113 64.2403 22.978C64.4579 22.4447 64.7798 21.9602 65.1871 21.5529C65.5944 21.1457 66.0788 20.8238 66.6121 20.6062C67.1454 20.3885 67.7168 20.2796 68.2928 20.2856C68.8687 20.2917 69.4377 20.4127 69.9663 20.6415C70.4949 20.8703 70.9725 21.2023 71.3711 21.6181L81.6739 31.9197C79.7239 33.3704 77.3171 34.0713 74.893 33.8945C72.469 33.7177 70.1894 32.6749 68.4705 30.9565L65.2522 27.737ZM86.194 49.7199C88.605 47.0403 89.8544 43.5136 89.668 39.9138L94.6155 44.8625L94.652 44.899V48.4315C94.6512 49.4658 94.28 50.4656 93.6057 51.2498C92.9314 52.034 91.9985 52.5507 90.976 52.7065C89.9536 52.8622 88.9091 52.6466 88.0319 52.0988C87.1547 51.5509 86.5027 50.707 86.194 49.7199Z" fill="#ED834E"/>
<path fill-rule="evenodd" clip-rule="evenodd" d="M66.5137 33.9507C69.193 36.3614 72.7192 37.6108 76.3185 37.4247L71.3711 42.3722L71.3346 42.4087H67.8008C66.7666 42.4079 65.7668 42.0367 64.9826 41.3624C64.1984 40.6881 63.6816 39.7552 63.5259 38.7327C63.3701 37.7103 63.5857 36.6658 64.1336 35.7886C64.6815 34.9114 65.5266 34.2594 66.5137 33.9507Z" fill="#4F9E91"/>
<path fill-rule="evenodd" clip-rule="evenodd" d="M101.963 30.0396C99.2835 27.6285 95.7568 26.3791 92.157 26.5655L97.1057 21.6181L97.1422 21.5815H100.675C101.709 21.5824 102.709 21.9535 103.493 22.6279C104.277 23.3022 104.794 24.2351 104.95 25.2575C105.105 26.28 104.89 27.3244 104.342 28.2017C103.794 29.0789 102.95 29.7309 101.963 30.0396Z" fill="#EBCC6E"/>
<path fill-rule="evenodd" clip-rule="evenodd" d="M82.2828 14.2703C79.8718 16.9499 78.6224 20.4766 78.8087 24.0764L73.8612 19.1277L73.8235 19.0912V15.5587C73.8234 14.5237 74.1941 13.523 74.8686 12.738C75.543 11.953 76.4764 11.4356 77.4996 11.2798C78.5227 11.124 79.5678 11.34 80.4454 11.8886C81.3229 12.4373 81.9748 13.2823 82.2828 14.2703Z" fill="#EBE1C5"/>
<path fill-rule="evenodd" clip-rule="evenodd" d="M78.1512 7.71069C76.0697 7.71069 74.0736 8.53753 72.6018 10.0093C71.13 11.4811 70.3032 13.4773 70.3032 15.5587V17.0844C68.6353 16.6466 66.8697 16.7702 65.2791 17.4362C63.6886 18.1021 62.3616 19.2735 61.5034 20.7691C60.6451 22.2647 60.3033 24.0013 60.5308 25.7106C60.7583 27.4199 61.5425 29.0067 62.762 30.2257L63.8409 31.3058C62.352 32.1756 61.1911 33.5115 60.5374 35.107C59.8837 36.7026 59.7737 38.4691 60.2244 40.1334C60.675 41.7978 61.6613 43.2674 63.0307 44.3151C64.4001 45.3629 66.0765 45.9305 67.8008 45.9302H69.3278C68.8899 47.5981 69.0135 49.3637 69.6795 50.9543C70.3455 52.5448 71.5168 53.8718 73.0124 54.73C74.508 55.5883 76.2447 55.9301 77.9539 55.7026C79.6632 55.4751 81.25 54.6909 82.4691 53.4714L85.6886 50.2518C87.0398 48.904 88.0923 47.287 88.7778 45.5059C89.4634 43.7249 89.7667 41.8195 89.668 39.9136L94.6155 44.8623C96.0873 46.3342 98.0836 47.161 100.165 47.161C102.247 47.161 104.243 46.3342 105.715 44.8623C107.187 43.3905 108.013 41.3942 108.013 39.3127C108.013 37.2312 107.187 35.235 105.715 33.7631L104.636 32.6842C106.125 31.8144 107.286 30.4784 107.939 28.8827C108.593 27.287 108.703 25.5205 108.252 23.8561C107.801 22.1916 106.815 20.722 105.445 19.6744C104.076 18.6267 102.399 18.0593 100.675 18.0598H99.149C99.5868 16.392 99.4632 14.6263 98.7972 13.0358C98.1313 11.4452 96.96 10.1183 95.4643 9.26002C93.9687 8.40176 92.2321 8.05997 90.5228 8.28748C88.8135 8.51498 87.2267 9.29911 86.0077 10.5187L82.7881 13.7382C81.437 15.0861 80.3845 16.703 79.6989 18.4841C79.0133 20.2652 78.71 22.1705 78.8087 24.0764L73.8612 19.1277L73.8247 19.0912V15.5587C73.8255 14.5244 74.1967 13.5247 74.871 12.7405C75.5454 11.9563 76.4782 11.4395 77.5007 11.2838C78.5232 11.128 79.5676 11.3436 80.4448 11.8915C81.3221 12.4393 81.9741 13.2833 82.2828 14.2704C82.4459 14.0889 82.614 13.9124 82.7881 13.7382L84.9276 11.5976C84.2361 10.4141 83.2466 9.43253 82.0576 8.75057C80.8687 8.06861 79.5218 7.71008 78.1512 7.71069ZM97.1422 21.5801L97.1057 21.6167L92.1582 26.5654C95.7576 26.3792 99.2838 27.6286 101.963 30.0394C102.951 29.7314 103.796 29.0796 104.345 28.202C104.893 27.3245 105.109 26.2794 104.954 25.2562C104.798 24.2331 104.28 23.2997 103.495 22.6252C102.71 21.9508 101.71 21.58 100.675 21.5801H97.1422ZM71.3345 42.4099L71.3711 42.3734L76.3185 37.4247C72.7192 37.6107 69.193 36.3613 66.5137 33.9506C65.5273 34.2601 64.6841 34.9124 64.1368 35.7895C63.5896 36.6667 63.3743 37.7107 63.5299 38.7328C63.6856 39.7549 64.2019 40.6875 64.9855 41.3619C65.7691 42.0364 66.7682 42.4081 67.802 42.4099H71.3345ZM90.3256 56.2794C88.955 56.28 87.6081 55.9214 86.4191 55.2395C85.2302 54.5575 84.2407 53.5759 83.5492 52.3925L85.6886 50.2518C85.8628 50.0777 86.0308 49.9011 86.194 49.7197C86.5035 50.7061 87.1557 51.5493 88.0329 52.0966C88.91 52.6438 89.9541 52.8591 90.9761 52.7035C91.9982 52.5478 92.9308 52.0315 93.6053 51.2479C94.2797 50.4643 94.6515 49.4652 94.6533 48.4314V44.9001C95.6299 45.8666 96.8442 46.5583 98.1736 46.9056V48.4314C98.1736 50.5128 97.3467 52.5089 95.875 53.9807C94.4032 55.4525 92.407 56.2794 90.3256 56.2794ZM94.6155 13.0089C93.804 12.1977 92.7035 11.742 91.5561 11.742C90.4086 11.742 89.3082 12.1977 88.4966 13.0089L85.2771 16.2272C83.5587 17.9461 82.5159 20.2257 82.3391 22.6497C82.1623 25.0737 82.8632 27.4805 84.3139 29.4306L94.6155 19.1289C95.4271 18.3174 95.883 17.2166 95.883 16.0689C95.883 14.9212 95.4271 13.8204 94.6155 13.0089ZM103.225 42.3722C103.626 41.9704 103.945 41.4934 104.163 40.9685C104.38 40.4436 104.492 39.8809 104.492 39.3127C104.492 38.7445 104.38 38.1819 104.163 37.6569C103.945 37.132 103.626 36.655 103.225 36.2533L100.006 33.0337C98.2875 31.3152 96.008 30.2722 93.5839 30.0951C91.1599 29.9181 88.753 30.6188 86.8028 32.0693L97.1045 42.3722C97.5062 42.7741 97.9833 43.093 98.5083 43.3106C99.0334 43.5282 99.5962 43.6401 100.165 43.6401C100.733 43.6401 101.296 43.5282 101.821 43.3106C102.346 43.093 102.823 42.7741 103.225 42.3722ZM79.9801 50.9812C79.5815 51.397 79.1039 51.729 78.5753 51.9578C78.0467 52.1866 77.4778 52.3076 76.9018 52.3136C76.3259 52.3197 75.7545 52.2107 75.2212 51.9931C74.6879 51.7755 74.2034 51.4536 73.7961 51.0463C73.3888 50.639 73.0669 50.1546 72.8493 49.6213C72.6317 49.088 72.5227 48.5166 72.5288 47.9406C72.5349 47.3647 72.6559 46.7957 72.8847 46.2671C73.1135 45.7385 73.4455 45.2609 73.8612 44.8623L84.1629 34.5595C85.6136 36.5095 86.3145 38.9163 86.1377 41.3404C85.9608 43.7644 84.918 46.044 83.1997 47.7629L79.9801 50.9812ZM65.2522 21.6179C64.441 22.4294 63.9853 23.5299 63.9853 24.6773C63.9853 25.8248 64.441 26.9252 65.2522 27.7368L68.4705 30.9563C70.1893 32.6749 72.4688 33.7179 74.8928 33.8949C77.3169 34.072 79.7237 33.3713 81.6739 31.9207L71.3723 21.6179C70.5607 20.8063 69.46 20.3504 68.3122 20.3504C67.1645 20.3504 66.0638 20.8063 65.2522 21.6179Z" fill="#3D3A2C"/>
<path d="M1.86671 23.5808H5.7146V35.5397H12.3254V38.7788H1.86549V23.5808H1.86671ZM19.3125 39.1063C18.0218 39.1063 16.8918 38.8737 15.9213 38.4098C14.9495 37.9313 14.1958 37.2798 13.66 36.453C13.1376 35.6128 12.877 34.6484 12.877 33.561C12.877 32.4736 13.1376 31.5177 13.66 30.6909C14.1958 29.8507 14.9495 29.198 15.9213 28.7341C16.8918 28.2555 18.023 28.0156 19.3125 28.0156C20.6033 28.0156 21.7333 28.2555 22.705 28.7341C23.6755 29.1968 24.4219 29.8495 24.9455 30.6909C25.4813 31.5177 25.7492 32.4736 25.7492 33.561C25.7492 34.6484 25.4813 35.6116 24.9455 36.453C24.4219 37.2786 23.6755 37.9313 22.705 38.4098C21.7333 38.8737 20.6033 39.1063 19.3125 39.1063ZM19.3125 36.1266C20.0809 36.1266 20.6897 35.9026 21.139 35.4533C21.603 34.9893 21.8356 34.3573 21.8356 33.561C21.8356 32.7634 21.6042 32.1399 21.139 31.6906C20.6897 31.2279 20.0809 30.9953 19.3125 30.9953C18.5454 30.9953 17.928 31.2267 17.4641 31.6906C17.0147 32.1412 16.7907 32.7634 16.7907 33.561C16.7907 34.3586 17.0147 34.9893 17.4641 35.4533C17.928 35.9026 18.5442 36.1266 19.3125 36.1266ZM32.9384 43.781C32.2305 43.7799 31.5242 43.7142 30.8282 43.585C30.2095 43.4769 29.6044 43.3017 29.0236 43.0626V40.4105C30.1682 40.9036 31.4736 41.1496 32.9372 41.1496C33.9966 41.1496 34.7564 40.9316 35.2204 40.4969C35.6989 40.0622 35.9388 39.4254 35.9388 38.5839V37.9532C35.5175 38.316 34.9963 38.5985 34.3729 38.8019C33.7413 39.0084 33.0805 39.1112 32.416 39.1063C31.314 39.1063 30.3423 38.8737 29.5021 38.4098C28.6718 37.9563 27.9861 37.2782 27.5234 36.453C27.0594 35.6128 26.8269 34.6484 26.8269 33.561C26.8269 32.459 27.0582 31.4885 27.5234 30.647C27.9704 29.8231 28.6513 29.1498 29.4802 28.7121C30.3204 28.2494 31.2848 28.0168 32.3722 28.0168C33.8651 28.0168 35.0974 28.4735 36.0679 29.3867V28.342H39.7648V38.0615C39.7648 39.8735 39.2071 41.2799 38.0905 42.2808C36.9897 43.2806 35.2727 43.781 32.9384 43.781ZM33.3719 36.1486C33.9662 36.1486 34.4959 35.9963 34.9598 35.6919C35.4225 35.3875 35.7501 34.982 35.9376 34.4742V32.6477C35.7434 32.1509 35.3924 31.7311 34.9379 31.4519C34.473 31.1473 33.9277 30.9883 33.3719 30.9953C32.5902 30.9953 31.9594 31.2267 31.4809 31.6906C31.0023 32.1412 30.7624 32.7561 30.7624 33.5391C30.7624 34.3366 31.0023 34.9747 31.4809 35.4533C31.9594 35.916 32.589 36.1486 33.3719 36.1486ZM47.172 39.1063C45.8812 39.1063 44.7512 38.8737 43.7795 38.4098C42.809 37.9313 42.0553 37.2798 41.5183 36.453C40.9971 35.6128 40.7353 34.6484 40.7353 33.561C40.7353 32.4736 40.9971 31.5177 41.5183 30.6909C42.054 29.8507 42.809 29.198 43.7795 28.7341C44.7512 28.2555 45.8812 28.0156 47.172 28.0156C48.4627 28.0156 49.5927 28.2555 50.5645 28.7341C51.535 29.1968 52.2814 29.8495 52.8038 30.6909C53.3396 31.5177 53.6075 32.4736 53.6075 33.561C53.6075 34.6484 53.3396 35.6116 52.8038 36.453C52.2814 37.2786 51.5349 37.9313 50.5632 38.4098C49.5927 38.8737 48.4615 39.1063 47.172 39.1063ZM47.172 36.1266C47.9391 36.1266 48.548 35.9026 48.9985 35.4533C49.4612 34.9893 49.6938 34.3573 49.6938 33.561C49.6938 32.7634 49.4624 32.1399 48.9985 31.6906C48.548 31.2279 47.9391 30.9953 47.172 30.9953C46.4048 30.9953 45.7875 31.2267 45.3235 31.6906C44.8742 32.1412 44.6501 32.7634 44.6501 33.561C44.6501 34.3586 44.8742 34.9893 45.3235 35.4533C45.7875 35.9026 46.4036 36.1266 47.172 36.1266ZM114.989 23.5808H118.837V38.78H114.989V23.5808ZM120.786 28.342H124.483V29.3867C125.453 28.4735 126.686 28.0168 128.179 28.0168C129.266 28.0168 130.23 28.2482 131.071 28.7121C131.9 29.15 132.581 29.8237 133.027 30.6483C133.491 31.4739 133.724 32.4383 133.724 33.5391C133.724 34.6264 133.491 35.5969 133.027 36.453C132.577 37.2802 131.898 37.9597 131.071 38.4098C130.245 38.8737 129.281 39.1063 128.179 39.1063C127.483 39.1063 126.816 38.9967 126.179 38.78C125.606 38.6039 125.074 38.3153 124.613 37.9313V43.5411H120.786V28.342ZM127.179 36.1266C127.962 36.1266 128.593 35.8953 129.07 35.4313C129.549 34.9674 129.788 34.3354 129.788 33.5391C129.788 32.7415 129.549 32.1192 129.07 31.6699C128.593 31.206 127.962 30.9734 127.179 30.9734C126.599 30.9734 126.077 31.1256 125.613 31.43C125.158 31.7092 124.807 32.129 124.613 32.6258V34.4742C124.817 34.982 125.149 35.3875 125.613 35.6919C126.077 35.9817 126.599 36.1266 127.179 36.1266ZM139.429 39.1063C138.589 39.1063 137.712 39.0186 136.799 38.8445C135.885 38.6862 135.16 38.4536 134.624 38.1492V35.3437C135.218 35.6919 135.928 35.9817 136.755 36.2143C137.595 36.4311 138.363 36.5394 139.06 36.5394C139.566 36.5394 139.937 36.5029 140.168 36.4311C140.401 36.358 140.516 36.2143 140.516 35.9963C140.517 35.9123 140.496 35.8294 140.454 35.7565C140.412 35.6837 140.351 35.6235 140.278 35.5823C140.133 35.4667 139.856 35.351 139.451 35.2353C139.06 35.105 138.603 34.9674 138.081 34.8213C137.197 34.5607 136.502 34.2928 135.994 34.0176C135.486 33.7424 135.11 33.3942 134.863 32.974C134.617 32.5539 134.494 32.0243 134.494 31.3862C134.494 30.2562 134.936 29.4148 135.82 28.8644C136.718 28.2993 137.943 28.0168 139.495 28.0168C140.248 28.0168 141.039 28.096 141.864 28.2555C142.706 28.415 143.335 28.6257 143.756 28.8863V31.648C143.322 31.3582 142.741 31.1183 142.016 30.9296C141.365 30.7492 140.692 30.6542 140.016 30.647C139.524 30.647 139.139 30.6982 138.864 30.7993C138.589 30.8869 138.451 31.0464 138.451 31.2778C138.451 31.4958 138.589 31.6626 138.864 31.7771C139.139 31.894 139.632 32.0389 140.342 32.213C140.806 32.3287 141.002 32.3798 140.929 32.3652C141.857 32.6112 142.574 32.8876 143.082 33.192C143.59 33.4964 143.944 33.8581 144.147 34.2782C144.365 34.6849 144.474 35.2061 144.474 35.8441C144.474 36.8439 144.039 37.6414 143.17 38.2357C142.314 38.8153 141.067 39.1063 139.429 39.1063ZM150.187 39.1063C148.753 39.1063 147.673 38.7069 146.948 37.9093C146.238 37.113 145.883 36.0621 145.883 34.7567V28.342H149.71V34.322C149.71 35.5251 150.253 36.1266 151.34 36.1266C151.812 36.132 152.278 36.0118 152.688 35.7784C153.094 35.547 153.427 35.2061 153.688 34.7567V28.342H157.515V38.78H153.819V37.6487C153.37 38.1273 152.826 38.489 152.188 38.7361C151.55 38.9825 150.871 39.1089 150.187 39.1063ZM159.474 28.342H163.019V29.4732C163.454 29.0105 163.954 28.6537 164.519 28.4077C165.085 28.1468 165.701 28.0134 166.324 28.0168C167.107 28.0168 167.73 28.1325 168.194 28.3639C168.673 28.5952 169.056 28.9435 169.346 29.4074C169.799 28.9609 170.34 28.6131 170.934 28.3858C171.535 28.144 172.177 28.0188 172.825 28.0168C174.202 28.0168 175.181 28.3712 175.761 29.0823C176.341 29.7776 176.63 30.7846 176.63 32.1046V38.78H172.977V32.6477C172.977 32.0681 172.869 31.648 172.651 31.3862C172.434 31.1256 172.071 30.9953 171.565 30.9953C170.912 30.9953 170.382 31.2267 169.977 31.6906C169.992 31.9378 169.999 32.3141 169.999 32.8218V38.78H166.346V32.4967C166.346 31.9597 166.252 31.5749 166.063 31.3436C165.875 31.1122 165.541 30.9953 165.064 30.9953C164.323 30.9953 163.686 31.4093 163.149 32.2349V38.78H159.474V28.342Z" fill="#3D3A2C"/>
</svg>
