<svg width="372" height="65" viewBox="0 0 372 65" fill="none" xmlns="http://www.w3.org/2000/svg">
<g clip-path="url(#clip0_172_13)">
<path d="M56.9485 33.2001H74.2473V31.7999H57.0409L52.5265 22.8676L49.1337 13.0882L56.2918 0.700129L55.0792 0L47.9841 12.2901L36.3451 11.5801L24.5115 9.25571L19.1681 0L17.9555 0.700129L23.2513 9.87182C22.2277 11.5647 17.7903 18.8643 16.068 21.2223C14.312 23.6238 8.39175 30.436 7.20293 31.7999H0V33.2001H7.11331L14.5053 46.2575L20.1805 60.4548L17.9555 64.2999L19.1681 65L21.3707 61.1843L37.1237 60.1089L52.8752 61.1829L55.0778 64.9986L56.2904 64.2985L46.8288 47.9154L51.3335 40.3008L56.9485 33.2001ZM51.2243 23.3703L51.2397 23.4151L55.467 31.7999H47.2055L45.1597 27.4689L43.6195 22.6436L48.2109 14.6915L51.2243 23.3703ZM39.976 30.3156L40.5823 31.7999H38.3419L39.7337 29.3886L39.976 30.3156ZM34.0865 34.2013L33.3528 33.2001H35.911L34.6928 35.3103L34.0865 34.2013ZM37.1237 33.9003L38.1038 35.596L36.9626 35.6394L36.0287 35.799L37.1237 33.9003ZM35.911 31.7999H29.8549C30.5088 31.0843 31.2748 30.2302 31.6094 29.8031C31.9959 29.3102 32.7716 28.1564 33.3248 27.3204L35.911 31.7999ZM34.8594 27.179L36.4781 27.6761L38.8586 28.0962L37.1237 31.0997L34.8594 27.179ZM31.6178 33.2001L32.8781 34.914L33.8695 36.7344L32.6428 38.8656L31.2958 35.9502L29.5357 33.2001H31.6178ZM35.1185 37.3743L37.062 37.0368L38.895 36.9668L40.3541 39.4873L37.0816 39.3081L33.847 39.5727L35.1185 37.3743ZM39.266 34.8104L38.3363 33.2001H40.2588L39.7589 33.8919L39.266 34.8104ZM39.6049 26.8009L36.8436 26.3235L33.8288 25.3979L31.58 21.5024L36.3773 22.6226L36.4221 22.6324L41.7095 23.1519L39.6049 26.8009ZM32.5406 25.9608C32.0575 26.6973 30.9611 28.358 30.506 28.9363C30.0271 29.5483 28.5065 31.1964 27.9506 31.7971H22.701C23.936 30.3968 25.9216 28.1242 26.6665 27.13C27.4605 26.07 29.208 23.3073 30.1434 21.809L32.5406 25.9608ZM27.8735 33.2001L30.0636 36.6238L31.7845 40.3484L28.6801 45.724L25.9734 39.2913L22.3719 33.2001H27.8735ZM32.9943 41.0528L37.0998 40.7181L41.19 40.9422L44.7285 47.0711L37.3183 46.3052L29.8185 46.553L32.9943 41.0528ZM40.0908 36.2373L40.924 34.6732L41.9854 33.2001H45.346L43.3212 35.841L41.6045 38.8572L40.0908 36.2373ZM42.096 31.7999L41.3174 29.9095L40.7195 27.6691L42.6799 24.2791L43.8617 27.98L45.6652 31.7999H42.096ZM36.1659 12.9734L47.2013 13.6455L42.481 21.8202L36.6532 21.2475L30.6223 19.8389L25.4413 10.8646L36.1659 12.9734ZM17.198 22.0485C18.8041 19.8515 22.5638 13.7043 24.0508 11.2567L29.3522 20.4396C28.6521 21.5752 26.4313 25.1136 25.5477 26.2941C24.6361 27.5109 21.6466 30.8841 20.8316 31.7999H9.05967C11.1055 29.4418 15.6479 24.1685 17.198 22.0485ZM15.7879 45.6946L15.7697 45.6512L8.72221 33.2001H20.7406L24.7146 39.9214L27.7951 47.2461L21.0599 58.9117L15.7879 45.6946ZM37.1713 58.71H37.1237L22.2151 59.7266L28.9938 47.9855L37.2693 47.7054L45.5924 48.5652L52.0336 59.7196L37.1713 58.71ZM50.1769 39.5013L46.0265 46.518L42.4124 40.2588L44.4918 36.6182L47.1117 33.2001H55.1632L50.2063 39.4663L50.1769 39.5013Z" fill="#61C0BF"/>
<path d="M113.683 28.8324C113.683 30.3492 114.61 30.6441 116.253 30.3913V31.9081C112.587 32.7929 111.029 34.0147 109.975 34.0147C109.259 34.0147 108.838 33.5091 108.922 32.6665L109.217 30.3492C108.627 31.9924 106.984 33.9305 103.571 33.9305C99.0208 33.9305 94.3862 30.1385 94.3862 22.8075C94.3862 15.8135 99.1472 12.0637 103.445 12.0637C106.268 12.0637 107.911 13.5804 108.922 14.9708V9.70425C108.922 8.22961 107.995 7.80829 106.352 8.01895V6.62857C110.06 5.95445 111.703 4.39555 112.714 4.39555C113.388 4.39555 113.683 4.77474 113.683 5.61739V28.8324ZM104.751 32.4558C107.195 32.4558 108.669 30.0543 108.922 28.0319V16.614C107.911 15.1393 106.268 13.4962 104.161 13.4962C101.043 13.4962 99.5264 16.4033 99.5264 21.8384C99.5264 27.6527 101.464 32.4558 104.751 32.4558ZM137.109 29.0431C137.109 30.5177 138.036 30.8548 139.679 30.602V31.9081C135.971 32.7929 134.412 34.0147 133.401 34.0147C132.643 34.0147 132.263 33.467 132.348 32.6243L132.769 28.9167C131.842 30.3071 129.483 34.099 125.564 34.099C122.194 34.099 119.287 32.4979 119.287 26.6415V15.5185C119.287 14.4652 118.949 14.0439 118.107 14.086L116.843 14.1282V12.6957L122.994 12.2322C123.584 12.1901 124.048 12.485 124.048 13.1591V26.473C124.048 29.6329 124.511 31.9081 126.87 31.9081C129.862 31.9081 131.884 27.9898 132.348 27.0207V15.5185C132.348 14.4652 132.011 14.0439 131.168 14.086L129.904 14.1282V12.6957L136.013 12.2322C136.687 12.1901 137.109 12.485 137.109 13.1591V29.0431ZM160.282 12.1058C161.84 12.1058 162.22 12.7799 162.22 14.0439C162.22 15.0129 162.093 15.8556 161.082 15.8135C160.324 15.7292 159.86 15.5607 159.27 15.5607C158.596 15.5607 158.47 16.0241 158.68 16.5297C159.018 17.3724 159.355 18.2993 159.355 19.6054C159.355 23.9029 155.942 27.0207 150.844 27.0207C148.864 27.0207 147.515 26.4309 146.336 26.4309C145.367 26.4309 144.945 26.9365 144.945 27.5263C144.945 28.4954 146.041 28.9588 148.4 29.2959L153.33 30.0121C158.47 30.7705 161.082 32.1188 161.082 35.9107C161.082 39.9133 156.574 42.6519 150.97 42.6519C145.409 42.6519 141.49 40.5874 141.49 36.8797C141.49 34.9838 142.459 33.5934 144.313 33.5934C145.451 33.5934 146.336 34.1411 146.336 35.2366C146.336 36.4163 145.914 36.6691 145.914 38.1437C145.914 39.7447 147.684 41.3458 151.054 41.3458C154.846 41.3458 157.079 39.6183 157.079 36.5848C157.079 34.8995 156.068 34.2254 153.582 33.7619L146.209 32.4558C142.839 31.866 141.575 30.4756 141.575 28.706C141.575 26.9365 143.049 25.4618 145.788 25.5461C143.723 24.4506 142.249 22.1755 142.249 19.6054C142.249 15.35 145.409 12.0637 150.717 12.0637C154.13 12.0637 155.942 13.454 157.248 14.8023C157.669 13.2012 158.596 12.1058 160.282 12.1058ZM150.802 25.5882C153.709 25.5882 154.594 22.4704 154.594 19.6475C154.594 16.8668 153.709 13.4962 150.802 13.4962C147.895 13.4962 147.01 16.8668 147.01 19.6475C147.01 22.4704 147.895 25.5882 150.802 25.5882ZM183.244 12.1058C184.803 12.1058 185.182 12.7799 185.182 14.0439C185.182 15.0129 185.055 15.8556 184.044 15.8135C183.286 15.7292 182.822 15.5607 182.233 15.5607C181.558 15.5607 181.432 16.0241 181.643 16.5297C181.98 17.3724 182.317 18.2993 182.317 19.6054C182.317 23.9029 178.904 27.0207 173.806 27.0207C171.826 27.0207 170.478 26.4309 169.298 26.4309C168.329 26.4309 167.908 26.9365 167.908 27.5263C167.908 28.4954 169.003 28.9588 171.362 29.2959L176.292 30.0121C181.432 30.7705 184.044 32.1188 184.044 35.9107C184.044 39.9133 179.536 42.6519 173.932 42.6519C168.371 42.6519 164.453 40.5874 164.453 36.8797C164.453 34.9838 165.422 33.5934 167.276 33.5934C168.413 33.5934 169.298 34.1411 169.298 35.2366C169.298 36.4163 168.877 36.6691 168.877 38.1437C168.877 39.7447 170.646 41.3458 174.017 41.3458C177.809 41.3458 180.042 39.6183 180.042 36.5848C180.042 34.8995 179.031 34.2254 176.545 33.7619L169.171 32.4558C165.801 31.866 164.537 30.4756 164.537 28.706C164.537 26.9365 166.012 25.4618 168.75 25.5461C166.686 24.4506 165.211 22.1755 165.211 19.6054C165.211 15.35 168.371 12.0637 173.68 12.0637C177.092 12.0637 178.904 13.454 180.21 14.8023C180.632 13.2012 181.558 12.1058 183.244 12.1058ZM173.764 25.5882C176.671 25.5882 177.556 22.4704 177.556 19.6475C177.556 16.8668 176.671 13.4962 173.764 13.4962C170.857 13.4962 169.972 16.8668 169.972 19.6475C169.972 22.4704 170.857 25.5882 173.764 25.5882ZM198.622 32.2873C197.822 33.0457 196.263 33.8041 194.535 33.8041C191.333 33.8041 189.142 32.1609 189.142 27.9898V13.9596H187.331C187.036 13.9596 186.867 13.749 186.867 13.454V12.8642C186.867 12.5693 187.036 12.4007 187.331 12.4007C190.196 12.4007 191.375 10.3784 191.839 6.67071H193.903V12.4007H198.201C198.496 12.4007 198.664 12.5693 198.664 12.8642V13.454C198.664 13.749 198.496 13.9596 198.201 13.9596H193.903V28.7903C193.903 30.4756 194.282 31.9502 196.01 31.9502C197.147 31.9502 198.117 31.234 198.622 30.602V32.2873ZM220.952 30.602C220.952 31.6553 222.09 31.9924 223.522 32.1609V33.5091C220.236 33.3827 216.95 33.3827 213.621 33.5091V32.1609C215.054 32.0345 216.191 31.6553 216.191 30.602V19.3947C216.191 16.2348 215.728 14.1282 213.537 14.1282C210.63 14.1282 208.355 17.4988 207.891 18.3414V30.602C207.891 31.6553 209.029 32.0345 210.461 32.1609V33.5091C207.175 33.3827 203.889 33.3827 200.602 33.5091V32.1609C201.993 31.9924 203.13 31.6553 203.13 30.602V9.66212C203.13 8.18748 202.203 7.80829 200.56 8.06108V6.71284C204.268 6.03872 205.911 4.39555 206.88 4.39555C207.596 4.39555 207.891 4.77474 207.891 5.61739V14.086L207.596 16.6561C208.439 15.3079 210.967 12.0215 214.843 12.0215C218.256 12.0215 220.952 13.454 220.952 19.3105V30.602ZM241.977 28.8746C242.398 28.8746 242.566 29.2959 242.271 29.8436C241.134 32.203 238.859 33.9305 235.193 33.9305C229.547 33.9305 224.997 30.0964 224.997 22.9339C224.997 15.9399 229.716 12.0637 234.688 12.0637C239.533 12.0637 243.367 15.4343 243.367 20.743C243.367 22.344 242.735 23.3973 241.092 23.3973H230.053C230.095 28.706 231.991 32.498 235.825 32.498C237.974 32.498 239.491 31.571 240.586 29.5065C240.797 29.1273 240.923 28.8746 241.387 28.8746H241.977ZM238.732 21.7963C238.732 16.614 237.595 13.4962 234.688 13.4962C231.696 13.4962 230.095 16.614 230.053 21.7963H238.732ZM253.268 33.6777L246.864 16.3612C246.316 14.8865 245.853 14.086 244.589 13.8754L243.578 13.749V12.4007H253.521V13.7911L252.425 13.8754C251.33 14.0018 251.035 14.9287 251.541 16.3612L255.922 28.5796L259.925 16.4455C260.388 14.9287 259.335 14.0018 258.071 13.8754L256.765 13.7911V12.4007H265.36V13.749L264.391 13.8754C263.169 14.086 262.158 14.6338 261.568 16.4455L255.754 33.6777H253.268ZM271.469 9.07226C270.079 9.07226 268.899 7.93468 268.899 6.54431C268.899 5.15394 270.079 4.01636 271.469 4.01636C272.818 4.01636 273.997 5.15394 273.997 6.54431C273.997 7.93468 272.818 9.07226 271.469 9.07226ZM274.166 30.602C274.166 31.6553 275.303 31.9924 276.736 32.1609V33.5091C273.45 33.3827 270.163 33.3827 266.877 33.5091V32.1609C268.267 31.9924 269.405 31.6553 269.405 30.602V16.9932C269.405 15.5185 268.478 15.1393 266.835 15.2236V13.9175C270.711 13.3276 272.27 11.9373 273.281 11.9373C273.955 11.9373 274.419 12.2743 274.419 13.0327C274.419 14.4231 274.166 15.982 274.166 18.5942V30.602ZM295.569 28.8746C296.075 28.8746 296.327 29.2959 296.033 29.8436C294.853 32.203 292.704 33.9305 289.081 33.9305C283.519 33.9305 278.843 29.97 278.843 22.8496C278.843 16.0663 283.477 12.0637 288.617 12.0637C293.252 12.0637 296.37 14.6338 296.412 17.5409C296.412 18.5099 295.653 19.6054 294.137 19.6054C292.746 19.6054 291.861 18.7206 291.946 17.6252C292.03 15.5607 291.524 13.4962 289.081 13.4962C285.752 13.4962 284.025 16.951 284.025 22.5547C284.025 28.4111 286.131 32.498 289.46 32.498C292.283 32.498 293.631 30.8969 294.052 29.338C294.137 29.0009 294.347 28.8746 294.6 28.8746H295.569ZM303.153 9.07226C301.763 9.07226 300.583 7.93468 300.583 6.54431C300.583 5.15394 301.763 4.01636 303.153 4.01636C304.501 4.01636 305.681 5.15394 305.681 6.54431C305.681 7.93468 304.501 9.07226 303.153 9.07226ZM305.849 30.602C305.849 31.6553 306.987 31.9924 308.42 32.1609V33.5091C305.133 33.3827 301.847 33.3827 298.561 33.5091V32.1609C299.951 31.9924 301.088 31.6553 301.088 30.602V16.9932C301.088 15.5185 300.162 15.1393 298.518 15.2236V13.9175C302.395 13.3276 303.953 11.9373 304.965 11.9373C305.639 11.9373 306.102 12.2743 306.102 13.0327C306.102 14.4231 305.849 15.982 305.849 18.5942V30.602ZM320.301 12.0637C325.146 12.0637 330.16 15.6871 330.16 22.7653C330.16 30.0543 325.146 33.9305 320.385 33.9305C315.54 33.9305 310.526 30.0543 310.526 23.1024C310.526 15.6871 315.54 12.0637 320.301 12.0637ZM324.978 23.9872C324.978 17.7094 322.955 13.4962 319.711 13.4962C317.141 13.4962 315.708 16.2348 315.708 21.8805C315.708 28.2004 317.731 32.498 320.933 32.498C323.545 32.498 324.978 29.6751 324.978 23.9872ZM351.9 29.0431C351.9 30.5177 352.827 30.8548 354.47 30.602V31.9081C350.763 32.7929 349.204 34.0147 348.193 34.0147C347.434 34.0147 347.055 33.467 347.139 32.6243L347.561 28.9167C346.634 30.3071 344.274 34.099 340.356 34.099C336.985 34.099 334.078 32.4979 334.078 26.6415V15.5185C334.078 14.4652 333.741 14.0439 332.899 14.086L331.635 14.1282V12.6957L337.786 12.2322C338.376 12.1901 338.839 12.485 338.839 13.1591V26.473C338.839 29.6329 339.303 31.9081 341.662 31.9081C344.654 31.9081 346.676 27.9898 347.139 27.0207V15.5185C347.139 14.4652 346.802 14.0439 345.96 14.086L344.696 14.1282V12.6957L350.805 12.2322C351.479 12.1901 351.9 12.485 351.9 13.1591V29.0431ZM371.576 27.737C371.576 31.4025 368.037 34.0147 364.877 34.0147C362.054 34.0147 360.495 32.5401 359.231 32.5401C358.642 32.5401 358.304 32.8771 358.262 33.467H356.914L356.408 27.737H357.083C357.63 27.737 358.094 27.8212 358.262 28.4111C358.894 30.7284 362.096 32.6665 364.329 32.6665C366.268 32.6665 367.489 31.3604 367.489 29.5908C367.489 27.3156 365.509 26.3466 362.602 24.872C359.653 23.3973 356.366 21.4592 356.366 17.7516C356.366 14.5495 359.105 12.0637 362.728 12.0637C365.509 12.0637 366.436 13.2434 367.531 13.2434C368.079 13.2434 368.416 12.9485 368.543 12.4007H369.933L370.312 17.9201H369.596C369.048 17.9201 368.753 17.7516 368.501 17.246C367.447 14.8865 365.298 13.3276 363.36 13.3276C361.422 13.3276 360.285 14.718 360.285 16.3191C360.285 18.2993 361.759 19.2683 364.161 20.448C366.815 21.712 371.576 23.6501 371.576 27.737Z" fill="#1B182A"/>
<path d="M105.892 56.6971C105.709 57.1852 105.53 57.6674 105.355 58.144C105.179 58.6205 105.017 59.0552 104.869 59.4479C104.72 59.8406 104.596 60.1742 104.497 60.4487C104.398 60.7232 104.333 60.9024 104.303 60.9862C104.264 61.0854 104.202 61.1654 104.114 61.2264C104.026 61.2874 103.929 61.3179 103.822 61.3179C103.715 61.3179 103.618 61.2874 103.531 61.2264C103.443 61.1654 103.38 61.0854 103.342 60.9862L100.848 54.1923L98.3436 60.9862C98.3055 61.0854 98.2445 61.1654 98.1606 61.2264C98.0767 61.2874 97.9814 61.3179 97.8747 61.3179C97.7679 61.3179 97.6707 61.2874 97.583 61.2264C97.4953 61.1654 97.4324 61.0854 97.3943 60.9862C97.3638 60.9024 97.2971 60.7232 97.1941 60.4487C97.0912 60.1742 96.9673 59.8406 96.8224 59.4479C96.6776 59.0552 96.5174 58.6205 96.3421 58.144C96.1667 57.6674 95.9875 57.1851 95.8045 56.6971C95.6291 56.2168 95.4556 55.7459 95.2841 55.2846C95.1125 54.8233 94.96 54.4077 94.8266 54.0379C94.6931 53.6681 94.5864 53.3631 94.5063 53.1229C94.4263 52.8827 94.3862 52.7474 94.3862 52.7169C94.3862 52.5796 94.4358 52.4614 94.5349 52.3623C94.634 52.2632 94.7522 52.2136 94.8895 52.2136C94.9962 52.2136 95.0934 52.2441 95.1811 52.3051C95.2688 52.3661 95.3317 52.4462 95.3699 52.5453L97.8747 59.3392L100.368 52.5453C100.406 52.4462 100.469 52.3661 100.557 52.3051C100.644 52.2441 100.742 52.2136 100.848 52.2136C100.955 52.2136 101.051 52.2441 101.134 52.3051C101.218 52.3661 101.279 52.4462 101.317 52.5453L103.822 59.3392L106.316 52.5453C106.354 52.4462 106.417 52.3661 106.504 52.3051C106.592 52.2441 106.689 52.2136 106.796 52.2136C106.933 52.2136 107.051 52.2632 107.151 52.3623C107.25 52.4614 107.299 52.5796 107.299 52.7169C107.299 52.7474 107.259 52.8827 107.179 53.1229C107.099 53.3631 106.992 53.6681 106.859 54.0379C106.725 54.4077 106.575 54.8233 106.407 55.2846C106.239 55.7459 106.068 56.2168 105.892 56.6971ZM119.445 61.3179L115.51 61.3179C115.365 61.3179 115.243 61.2683 115.144 61.1692C115.045 61.0701 114.996 60.9519 114.996 60.8147V60.7918V60.7689V52.7969C114.996 52.6597 115.045 52.5415 115.144 52.4424C115.243 52.3432 115.365 52.2937 115.51 52.2937H119.445C119.59 52.2937 119.712 52.3432 119.811 52.4424C119.91 52.5415 119.959 52.6597 119.959 52.7969C119.959 52.9418 119.91 53.0619 119.811 53.1572C119.712 53.2525 119.59 53.3002 119.445 53.3002H116.013V56.2168H118.907C119.044 56.2168 119.163 56.2644 119.262 56.3597C119.361 56.455 119.41 56.5751 119.41 56.72C119.41 56.8573 119.361 56.9754 119.262 57.0746C119.163 57.1737 119.044 57.2233 118.907 57.2233H116.013V60.3H119.445C119.59 60.3 119.712 60.3495 119.811 60.4487C119.91 60.5478 119.959 60.6698 119.959 60.8147C119.959 60.9519 119.91 61.0701 119.811 61.1692C119.712 61.2684 119.59 61.3179 119.445 61.3179ZM131.179 61.3179L128.742 61.3179C128.597 61.3179 128.475 61.2684 128.376 61.1692C128.277 61.0701 128.228 60.9519 128.228 60.8147V52.7969C128.228 52.6597 128.277 52.5415 128.376 52.4424C128.475 52.3433 128.597 52.2937 128.742 52.2937H130.412C130.702 52.2937 130.976 52.349 131.236 52.4595C131.495 52.5701 131.72 52.7207 131.911 52.9113C132.101 53.102 132.252 53.3269 132.362 53.5862C132.473 53.8454 132.528 54.1199 132.528 54.4097C132.528 54.8672 132.391 55.2865 132.116 55.6678C132.414 55.7669 132.684 55.9023 132.928 56.0738C133.172 56.2454 133.382 56.4493 133.558 56.6857C133.733 56.9221 133.87 57.1833 133.969 57.4692C134.068 57.7551 134.118 58.0582 134.118 58.3785C134.118 58.7826 134.042 59.1638 133.889 59.5222C133.737 59.8806 133.527 60.1932 133.26 60.4601C132.993 60.727 132.681 60.9367 132.322 61.0892C131.964 61.2417 131.583 61.3179 131.179 61.3179ZM130.412 53.3002H129.246V55.5076H130.527C130.649 55.5076 130.769 55.4752 130.887 55.4104C131.005 55.3456 131.11 55.2617 131.201 55.1588C131.293 55.0559 131.367 54.9396 131.424 54.8099C131.482 54.6803 131.51 54.5469 131.51 54.4096C131.51 54.2571 131.482 54.1142 131.424 53.9807C131.367 53.8473 131.289 53.7291 131.19 53.6262C131.091 53.5232 130.975 53.4432 130.841 53.386C130.708 53.3288 130.565 53.3002 130.412 53.3002ZM131.179 56.5256L129.246 56.5256V60.3H131.179C131.445 60.3 131.695 60.2504 131.928 60.1513C132.16 60.0521 132.364 59.9149 132.54 59.7395C132.715 59.5641 132.852 59.3602 132.951 59.1276C133.05 58.895 133.1 58.6453 133.1 58.3784C133.1 58.1116 133.049 57.8638 132.946 57.635C132.843 57.4063 132.705 57.2099 132.534 57.046C132.362 56.882 132.158 56.7543 131.922 56.6628C131.686 56.5713 131.438 56.5256 131.179 56.5256ZM162.012 61.3179C161.875 61.3179 161.756 61.2684 161.657 61.1692C161.558 61.0701 161.509 60.9519 161.509 60.8147V54.8557L158.512 61.032C158.466 61.1158 158.401 61.1845 158.318 61.2379C158.234 61.2912 158.146 61.3179 158.054 61.3179C157.963 61.3179 157.875 61.2912 157.791 61.2379C157.708 61.1845 157.643 61.1158 157.597 61.032L154.6 54.8557V60.8147C154.6 60.9519 154.553 61.0701 154.457 61.1692C154.362 61.2684 154.242 61.3179 154.097 61.3179C153.96 61.3179 153.842 61.2684 153.743 61.1692C153.643 61.0701 153.594 60.9519 153.594 60.8147V52.7969C153.594 52.6597 153.643 52.5415 153.743 52.4424C153.842 52.3432 153.96 52.2937 154.097 52.2937C154.303 52.2937 154.455 52.3852 154.555 52.5682L158.054 59.6709L161.554 52.5682C161.654 52.3852 161.806 52.2937 162.012 52.2937C162.149 52.2937 162.267 52.3432 162.366 52.4424C162.466 52.5415 162.515 52.6597 162.515 52.7969V60.8147C162.515 60.9519 162.466 61.0701 162.366 61.1692C162.267 61.2684 162.149 61.3179 162.012 61.3179ZM178.286 61.2722C178.225 61.3027 178.161 61.3179 178.092 61.3179C177.993 61.3179 177.899 61.2912 177.812 61.2379C177.724 61.1845 177.661 61.1082 177.623 61.0091L176.719 58.8817H172.568L171.664 61.0091C171.611 61.1387 171.519 61.2302 171.39 61.2836C171.26 61.337 171.13 61.3332 171.001 61.2722C170.871 61.2188 170.78 61.1273 170.726 60.9977C170.673 60.868 170.677 60.7384 170.738 60.6088L171.767 58.1726L174.18 52.5224C174.218 52.4233 174.279 52.3471 174.363 52.2937C174.447 52.2403 174.542 52.2136 174.649 52.2136C174.748 52.2136 174.84 52.2403 174.924 52.2937C175.008 52.3471 175.069 52.4233 175.107 52.5224C175.686 53.8797 176.262 55.2274 176.834 56.5656C177.406 57.9038 177.981 59.2515 178.561 60.6088C178.614 60.7384 178.614 60.868 178.561 60.9977C178.507 61.1273 178.416 61.2188 178.286 61.2722ZM174.649 54.0208L173.002 57.8638H176.285L174.649 54.0208ZM190.089 61.3179L187.275 61.3179C187.184 61.3179 187.096 61.2912 187.012 61.2378C186.928 61.1845 186.867 61.1158 186.829 61.032C186.76 60.91 186.753 60.7727 186.806 60.6202V52.7969C186.806 52.6597 186.856 52.5415 186.955 52.4424C187.054 52.3432 187.176 52.2937 187.321 52.2937H190.077C190.68 52.2937 191.229 52.4233 191.724 52.6825C192.22 52.9418 192.643 53.2811 192.994 53.7005C193.345 54.1198 193.615 54.5964 193.806 55.1302C193.997 55.6639 194.092 56.2053 194.092 56.7543C194.092 57.433 193.976 58.0525 193.743 58.6129C193.511 59.1734 193.206 59.6537 192.828 60.054C192.451 60.4544 192.022 60.7651 191.541 60.9862C191.061 61.2074 190.577 61.3179 190.089 61.3179ZM190.077 53.3002L187.824 53.3001V60.3114H190.089C190.523 60.3114 190.922 60.2065 191.284 59.9968C191.646 59.7871 191.961 59.5146 192.228 59.179C192.495 58.8435 192.702 58.4623 192.851 58.0353C193 57.6083 193.074 57.1813 193.074 56.7543C193.074 56.3197 193.002 55.8946 192.857 55.479C192.712 55.0634 192.508 54.6936 192.245 54.3696C191.982 54.0455 191.665 53.7862 191.295 53.5918C190.926 53.3974 190.52 53.3002 190.077 53.3002ZM207.221 61.3179L203.287 61.3179C203.142 61.3179 203.02 61.2683 202.921 61.1692C202.821 61.0701 202.772 60.9519 202.772 60.8147V60.7918V60.7689V52.7969C202.772 52.6597 202.821 52.5415 202.921 52.4424C203.02 52.3432 203.142 52.2937 203.287 52.2937H207.221C207.366 52.2937 207.488 52.3432 207.587 52.4424C207.686 52.5415 207.736 52.6597 207.736 52.7969C207.736 52.9418 207.686 53.0619 207.587 53.1572C207.488 53.2525 207.366 53.3002 207.221 53.3002H203.79V56.2168H206.684C206.821 56.2168 206.939 56.2644 207.038 56.3597C207.137 56.455 207.187 56.5751 207.187 56.72C207.187 56.8573 207.137 56.9754 207.038 57.0746C206.939 57.1737 206.821 57.2233 206.684 57.2233H203.79V60.3H207.221C207.366 60.3 207.488 60.3495 207.587 60.4487C207.686 60.5478 207.736 60.6698 207.736 60.8147C207.736 60.9519 207.686 61.0701 207.587 61.1692C207.488 61.2684 207.366 61.3179 207.221 61.3179ZM231.501 61.3179L227.566 61.3179C227.421 61.3179 227.299 61.2683 227.2 61.1692C227.101 61.0701 227.052 60.9519 227.052 60.8147V60.7918V60.7689V52.7969C227.052 52.6597 227.101 52.5415 227.2 52.4424C227.299 52.3432 227.421 52.2937 227.566 52.2937H231.501C231.646 52.2937 231.768 52.3432 231.867 52.4424C231.966 52.5415 232.015 52.6597 232.015 52.7969C232.015 52.9418 231.966 53.0619 231.867 53.1572C231.768 53.2525 231.646 53.3002 231.501 53.3002H228.069V56.2168H230.963C231.1 56.2168 231.219 56.2644 231.318 56.3597C231.417 56.455 231.466 56.5751 231.466 56.72C231.466 56.8573 231.417 56.9754 231.318 57.0746C231.219 57.1737 231.1 57.2233 230.963 57.2233H228.069V60.3H231.501C231.646 60.3 231.768 60.3495 231.867 60.4487C231.966 60.5478 232.015 60.6698 232.015 60.8147C232.015 60.9519 231.966 61.0701 231.867 61.1692C231.768 61.2684 231.646 61.3179 231.501 61.3179ZM247.123 61.2722C247.062 61.3027 246.998 61.3179 246.929 61.3179C246.83 61.3179 246.736 61.2912 246.649 61.2379C246.561 61.1845 246.498 61.1082 246.46 61.0091L245.556 58.8817H241.405L240.501 61.0091C240.448 61.1387 240.356 61.2302 240.226 61.2836C240.097 61.337 239.967 61.3332 239.838 61.2722C239.708 61.2188 239.616 61.1273 239.563 60.9977C239.51 60.868 239.514 60.7384 239.575 60.6088L240.604 58.1726L243.017 52.5224C243.055 52.4233 243.116 52.3471 243.2 52.2937C243.284 52.2403 243.379 52.2136 243.486 52.2136C243.585 52.2136 243.677 52.2403 243.761 52.2937C243.845 52.3471 243.906 52.4233 243.944 52.5224C244.523 53.8797 245.099 55.2274 245.671 56.5656C246.243 57.9038 246.818 59.2515 247.398 60.6088C247.451 60.7384 247.451 60.868 247.398 60.9977C247.344 61.1273 247.253 61.2188 247.123 61.2722ZM243.486 54.0208L241.839 57.8638H245.122L243.486 54.0208ZM257.885 61.3179C257.534 61.3179 257.206 61.2512 256.901 61.1177C256.596 60.9843 256.329 60.8032 256.101 60.5745C255.872 60.3457 255.691 60.0788 255.557 59.7738C255.424 59.4688 255.357 59.1409 255.357 58.7902C255.357 58.6453 255.407 58.5233 255.506 58.4242C255.605 58.3251 255.727 58.2755 255.872 58.2755C256.009 58.2755 256.127 58.3251 256.226 58.4242C256.326 58.5233 256.375 58.6453 256.375 58.7902C256.375 58.9961 256.415 59.1905 256.495 59.3735C256.575 59.5565 256.684 59.7166 256.821 59.8539C256.958 59.9911 257.119 60.0998 257.302 60.1799C257.485 60.2599 257.679 60.3 257.885 60.3C258.091 60.3 258.287 60.2599 258.474 60.1799C258.661 60.0998 258.823 59.9911 258.96 59.8539C259.097 59.7166 259.206 59.5565 259.286 59.3735C259.366 59.1905 259.406 58.9961 259.406 58.7902C259.406 58.5386 259.357 58.3308 259.257 58.1669C259.158 58.0029 259.021 57.86 258.846 57.738C258.762 57.677 258.666 57.6217 258.56 57.5721C258.453 57.5226 258.342 57.4711 258.228 57.4177C258.114 57.372 257.995 57.3262 257.873 57.2805C257.751 57.2347 257.626 57.189 257.496 57.1432C257.244 57.0517 256.991 56.9488 256.735 56.8344C256.48 56.72 256.251 56.577 256.049 56.4055C255.847 56.2339 255.681 56.0204 255.552 55.765C255.422 55.5095 255.357 55.195 255.357 54.8214C255.357 54.4706 255.424 54.1427 255.557 53.8378C255.691 53.5328 255.872 53.2659 256.101 53.0371C256.329 52.8084 256.596 52.6273 256.901 52.4938C257.206 52.3604 257.534 52.2937 257.885 52.2937C258.236 52.2937 258.565 52.3604 258.874 52.4938C259.183 52.6273 259.452 52.8084 259.681 53.0371C259.909 53.2659 260.09 53.5328 260.224 53.8378C260.357 54.1428 260.424 54.4707 260.424 54.8214C260.424 54.9586 260.374 55.0768 260.275 55.1759C260.176 55.2751 260.054 55.3246 259.909 55.3246C259.772 55.3246 259.654 55.2751 259.555 55.1759C259.456 55.0768 259.406 54.9586 259.406 54.8214C259.406 54.6155 259.366 54.4192 259.286 54.2324C259.206 54.0455 259.097 53.8835 258.96 53.7463C258.823 53.609 258.661 53.5003 258.474 53.4203C258.287 53.3402 258.091 53.3002 257.885 53.3002C257.679 53.3002 257.485 53.3402 257.302 53.4203C257.119 53.5003 256.958 53.609 256.821 53.7463C256.684 53.8835 256.575 54.0455 256.495 54.2324C256.415 54.4192 256.375 54.6155 256.375 54.8214C256.375 55.0501 256.423 55.2408 256.518 55.3933C256.613 55.5458 256.749 55.6792 256.924 55.7936C257.107 55.908 257.313 56.0109 257.542 56.1024L257.908 56.2396L258.285 56.3769C258.537 56.4684 258.79 56.5732 259.046 56.6914C259.301 56.8096 259.53 56.9583 259.732 57.1375C259.934 57.3167 260.1 57.5397 260.23 57.8066C260.359 58.0735 260.424 58.4013 260.424 58.7902C260.424 59.141 260.357 59.4689 260.224 59.7738C260.09 60.0788 259.909 60.3457 259.681 60.5745C259.452 60.8032 259.183 60.9843 258.874 61.1178C258.565 61.2512 258.236 61.3179 257.885 61.3179ZM274.491 53.0486L271.895 57.6922V60.8147C271.895 60.9519 271.845 61.0701 271.746 61.1692C271.647 61.2684 271.529 61.3179 271.391 61.3179C271.254 61.3179 271.136 61.2684 271.037 61.1692C270.938 61.0701 270.888 60.9519 270.888 60.8147V57.6922L268.292 53.0486C268.246 52.9723 268.223 52.8884 268.223 52.7969C268.223 52.6597 268.273 52.5415 268.372 52.4424C268.471 52.3432 268.589 52.2937 268.727 52.2937C268.818 52.2937 268.904 52.3166 268.984 52.3623C269.064 52.4081 269.127 52.4691 269.173 52.5453L271.391 56.5141L273.61 52.5453C273.656 52.4691 273.719 52.4081 273.799 52.3623C273.879 52.3166 273.965 52.2937 274.056 52.2937C274.194 52.2937 274.312 52.3432 274.411 52.4424C274.51 52.5415 274.56 52.6597 274.56 52.7969C274.56 52.8884 274.537 52.9723 274.491 53.0486Z" fill="#1B182A"/>
</g>
<defs>
<clipPath id="clip0_172_13">
<rect width="371.576" height="65" fill="white"/>
</clipPath>
</defs>
</svg>
