<svg width="70" height="64" viewBox="0 0 70 64" fill="none" xmlns="http://www.w3.org/2000/svg">
<path d="M5.44775 38.9382C5.44758 35.9719 6.03172 33.0345 7.16682 30.2939C8.30192 27.5533 9.96574 25.0632 12.0633 22.9656C14.1608 20.8681 16.651 19.2043 19.3916 18.0692C22.1322 16.9341 25.0695 16.3499 28.0359 16.3501V38.9382H5.44907H5.44775Z" fill="#442781"/>
<path d="M5.44775 38.9382C5.44775 44.929 7.82757 50.6744 12.0637 54.9104C16.2998 59.1465 22.0451 61.5264 28.0359 61.5264V38.9382H5.44907H5.44775Z" fill="#61459C"/>
<path d="M50.624 38.9382C50.6237 43.4057 49.2988 47.7727 46.8168 51.4872C44.3348 55.2018 40.8072 58.097 36.68 59.807C33.9399 60.942 31.0031 61.5262 28.0372 61.5264V38.9382H50.624Z" fill="#A992DB"/>
<path d="M64.5523 19.424C64.5523 28.7913 56.9581 36.3841 47.5921 36.3841H30.6307V19.424C30.6307 10.0567 38.2235 2.46387 47.5895 2.46387C56.9568 2.46387 64.5523 10.0567 64.5523 19.424Z" fill="#FF7917"/>
</svg>
