<svg width="286" height="50" viewBox="0 0 286 50" fill="none" xmlns="http://www.w3.org/2000/svg">
<g clip-path="url(#clip0_169_5)">
<path d="M43.8066 25.5386H57.1133V24.4614H43.8776L40.405 17.5905L37.7951 10.0679L43.3014 0.538561L42.3686 0L36.9108 9.4539L27.9578 8.9078L18.855 7.11978L14.7447 0L13.8119 0.538561L17.8856 7.59371C17.0982 8.89595 13.6848 14.511 12.36 16.3249C11.0093 18.1721 6.45519 23.4123 5.54072 24.4614H0V25.5386H5.47178L11.1579 35.5827L15.5235 46.5037L13.8119 49.4614L14.7447 50L16.439 47.0648L28.5567 46.2376L40.6732 47.0638L42.3675 49.9989L43.3003 49.4604L36.0222 36.858L39.4873 31.0006L43.8066 25.5386ZM39.4033 17.9772L39.4151 18.0116L42.667 24.4614H36.3119L34.7383 21.1299L33.5534 17.4181L37.0853 11.3012L39.4033 17.9772ZM30.7508 23.3197L31.2172 24.4614H29.4938L30.5644 22.6066L30.7508 23.3197ZM26.2204 26.3087L25.656 25.5386H27.6239L26.6868 27.1618L26.2204 26.3087ZM28.5567 26.0771L29.3106 27.3815L28.4328 27.4149L27.7143 27.5377L28.5567 26.0771ZM27.6239 24.4614H22.9653C23.4683 23.911 24.0575 23.254 24.315 22.9255C24.6122 22.5463 25.209 21.6588 25.6344 21.0157L27.6239 24.4614ZM26.815 20.9069L28.0601 21.2893L29.8912 21.6125L28.5567 23.9229L26.815 20.9069ZM24.3214 25.5386L25.2908 26.857L26.0534 28.2572L25.1099 29.8966L24.0737 27.654L22.7197 25.5386H24.3214ZM27.0142 28.7495L28.5093 28.4899L29.9192 28.436L31.0416 30.3748L28.5243 30.237L26.0362 30.4405L27.0142 28.7495ZM30.2047 26.7773L29.4894 25.5386H30.9683L30.5838 26.0707L30.2047 26.7773ZM30.4653 20.6161L28.3412 20.2488L26.0222 19.5368L24.2923 16.5403L27.9826 17.402L28.017 17.4095L32.0842 17.8091L30.4653 20.6161ZM25.0312 19.9698C24.6596 20.5364 23.8162 21.8139 23.4662 22.2587C23.0978 22.7294 21.9281 23.9972 21.5004 24.4593H17.4623C18.4123 23.3822 19.9397 21.634 20.5127 20.8692C21.1234 20.0539 22.4677 17.9287 23.1872 16.7762L25.0312 19.9698ZM21.4412 25.5386L23.1258 28.1721L24.4496 31.0373L22.0616 35.1723L19.9795 30.224L17.2092 25.5386H21.4412ZM25.3802 31.5791L28.5383 31.3216L31.6846 31.494L34.4065 36.2085L28.7064 35.6193L22.9373 35.81L25.3802 31.5791ZM30.8391 27.8748L31.48 26.6717L32.2964 25.5386H34.8815L33.324 27.57L32.0034 29.8901L30.8391 27.8748ZM32.3815 24.4614L31.7826 23.0073L31.3227 21.2839L32.8307 18.6762L33.7398 21.5231L35.1271 24.4614H32.3815ZM27.8199 9.97953L36.3087 10.4966L32.6777 16.7848L28.1947 16.3442L23.5556 15.2607L19.5702 8.35739L27.8199 9.97953ZM13.2292 16.9604C14.4647 15.2704 17.3567 10.5418 18.5006 8.65898L22.5786 15.7227C22.0401 16.5963 20.3318 19.3182 19.6521 20.2262C18.9509 21.1622 16.6512 23.757 16.0243 24.4614H6.96898C8.54266 22.6476 12.0368 18.5911 13.2292 16.9604ZM12.1446 35.1497L12.1305 35.1163L6.70939 25.5386H15.9543L19.0112 30.7087L21.3809 36.3432L16.1999 45.3167L12.1446 35.1497ZM28.5933 45.1616H28.5567L17.0885 45.9436L22.3029 36.9119L28.6687 36.6965L35.0711 37.3578L40.0259 45.9382L28.5933 45.1616ZM38.5976 30.3856L35.405 35.7831L32.6249 30.9683L34.2245 28.1678L36.2398 25.5386H42.4332L38.6202 30.3587L38.5976 30.3856Z" fill="#61C0BF"/>
<path d="M87.4481 22.1789C87.4481 23.3456 88.1611 23.5725 89.4251 23.378V24.5448C86.6055 25.2254 85.4063 26.1653 84.5961 26.1653C84.0451 26.1653 83.721 25.7764 83.7858 25.1282L84.0127 23.3456C83.559 24.6096 82.295 26.1004 79.6698 26.1004C76.1696 26.1004 72.6045 23.1836 72.6045 17.5443C72.6045 12.1643 76.2668 9.27984 79.5726 9.27984C81.744 9.27984 83.008 10.4466 83.7858 11.5161V7.4649C83.7858 6.33056 83.0728 6.00647 81.8088 6.16852V5.099C84.6609 4.58044 85.9249 3.38129 86.7027 3.38129C87.2212 3.38129 87.4481 3.67297 87.4481 4.32117V22.1789ZM80.5773 24.9661C82.457 24.9661 83.5914 23.1188 83.7858 21.5631V12.7801C83.008 11.6457 81.744 10.3818 80.1235 10.3818C77.7252 10.3818 76.5585 12.618 76.5585 16.7989C76.5585 21.2714 78.0493 24.9661 80.5773 24.9661ZM105.468 22.3409C105.468 23.4753 106.181 23.7345 107.445 23.5401V24.5448C104.593 25.2254 103.394 26.1653 102.616 26.1653C102.032 26.1653 101.741 25.7439 101.806 25.0957L102.13 22.2437C101.417 23.3132 99.6017 26.2301 96.5876 26.2301C93.9949 26.2301 91.7586 24.9985 91.7586 20.4936V11.9374C91.7586 11.1272 91.4993 10.8031 90.8511 10.8355L89.8788 10.8679V9.76599L94.6106 9.40948C95.0644 9.37707 95.4209 9.60394 95.4209 10.1225V20.3639C95.4209 22.7947 95.7774 24.5448 97.5923 24.5448C99.8934 24.5448 101.449 21.5307 101.806 20.7853V11.9374C101.806 11.1272 101.546 10.8031 100.898 10.8355L99.9258 10.8679V9.76599L104.625 9.40948C105.144 9.37707 105.468 9.60394 105.468 10.1225V22.3409ZM123.293 9.31225C124.492 9.31225 124.784 9.83081 124.784 10.8031C124.784 11.5485 124.687 12.1967 123.909 12.1643C123.326 12.0995 122.969 11.9698 122.515 11.9698C121.997 11.9698 121.9 12.3263 122.062 12.7153C122.321 13.3635 122.58 14.0765 122.58 15.0812C122.58 18.387 119.955 20.7853 116.033 20.7853C114.51 20.7853 113.473 20.3315 112.566 20.3315C111.82 20.3315 111.496 20.7204 111.496 21.1742C111.496 21.9196 112.339 22.2761 114.154 22.5354L117.946 23.0864C121.9 23.6697 123.909 24.7068 123.909 27.6237C123.909 30.7026 120.441 32.8092 116.131 32.8092C111.853 32.8092 108.838 31.2212 108.838 28.3691C108.838 26.9107 109.584 25.8412 111.01 25.8412C111.885 25.8412 112.566 26.2625 112.566 27.1051C112.566 28.0126 112.241 28.2071 112.241 29.3414C112.241 30.573 113.603 31.8045 116.195 31.8045C119.112 31.8045 120.83 30.4757 120.83 28.1423C120.83 26.8459 120.052 26.3273 118.14 25.9708L112.468 24.9661C109.876 24.5124 108.903 23.4429 108.903 22.0816C108.903 20.7204 110.038 19.5861 112.144 19.6509C110.556 18.8083 109.422 17.0582 109.422 15.0812C109.422 11.8078 111.853 9.27984 115.936 9.27984C118.561 9.27984 119.955 10.3494 120.96 11.3865C121.284 10.1549 121.997 9.31225 123.293 9.31225ZM116.001 19.6833C118.237 19.6833 118.918 17.285 118.918 15.1136C118.918 12.9745 118.237 10.3818 116.001 10.3818C113.765 10.3818 113.084 12.9745 113.084 15.1136C113.084 17.285 113.765 19.6833 116.001 19.6833ZM140.956 9.31225C142.156 9.31225 142.447 9.83081 142.447 10.8031C142.447 11.5485 142.35 12.1967 141.572 12.1643C140.989 12.0995 140.632 11.9698 140.179 11.9698C139.66 11.9698 139.563 12.3263 139.725 12.7153C139.984 13.3635 140.243 14.0765 140.243 15.0812C140.243 18.387 137.618 20.7853 133.697 20.7853C132.173 20.7853 131.136 20.3315 130.229 20.3315C129.483 20.3315 129.159 20.7204 129.159 21.1742C129.159 21.9196 130.002 22.2761 131.817 22.5354L135.609 23.0864C139.563 23.6697 141.572 24.7068 141.572 27.6237C141.572 30.7026 138.104 32.8092 133.794 32.8092C129.516 32.8092 126.502 31.2212 126.502 28.3691C126.502 26.9107 127.247 25.8412 128.673 25.8412C129.548 25.8412 130.229 26.2625 130.229 27.1051C130.229 28.0126 129.905 28.2071 129.905 29.3414C129.905 30.573 131.266 31.8045 133.859 31.8045C136.776 31.8045 138.493 30.4757 138.493 28.1423C138.493 26.8459 137.715 26.3273 135.803 25.9708L130.132 24.9661C127.539 24.5124 126.567 23.4429 126.567 22.0816C126.567 20.7204 127.701 19.5861 129.808 19.6509C128.219 18.8083 127.085 17.0582 127.085 15.0812C127.085 11.8078 129.516 9.27984 133.599 9.27984C136.225 9.27984 137.618 10.3494 138.623 11.3865C138.947 10.1549 139.66 9.31225 140.956 9.31225ZM133.664 19.6833C135.901 19.6833 136.581 17.285 136.581 15.1136C136.581 12.9745 135.901 10.3818 133.664 10.3818C131.428 10.3818 130.747 12.9745 130.747 15.1136C130.747 17.285 131.428 19.6833 133.664 19.6833ZM152.786 24.8365C152.17 25.4198 150.971 26.0032 149.642 26.0032C147.179 26.0032 145.494 24.7392 145.494 21.5307V10.7383H144.1C143.873 10.7383 143.744 10.5762 143.744 10.3494V9.89562C143.744 9.66876 143.873 9.53912 144.1 9.53912C146.304 9.53912 147.212 7.98346 147.568 5.13141H149.156V9.53912H152.462C152.689 9.53912 152.818 9.66876 152.818 9.89562V10.3494C152.818 10.5762 152.689 10.7383 152.462 10.7383H149.156V22.1465C149.156 23.4429 149.448 24.5772 150.777 24.5772C151.652 24.5772 152.397 24.0262 152.786 23.5401V24.8365ZM169.963 23.5401C169.963 24.3503 170.838 24.6096 171.94 24.7392V25.7763C169.412 25.6791 166.884 25.6791 164.324 25.7763V24.7392C165.426 24.642 166.301 24.3503 166.301 23.5401V14.9191C166.301 12.4884 165.944 10.8679 164.259 10.8679C162.023 10.8679 160.273 13.4607 159.916 14.1089V23.5401C159.916 24.3503 160.791 24.642 161.893 24.7392V25.7763C159.365 25.6791 156.837 25.6791 154.309 25.7763V24.7392C155.379 24.6096 156.254 24.3503 156.254 23.5401V7.43249C156.254 6.29815 155.541 6.00647 154.277 6.20093V5.16382C157.129 4.64526 158.393 3.38129 159.138 3.38129C159.689 3.38129 159.916 3.67297 159.916 4.32117V10.8355L159.689 12.8125C160.337 11.7754 162.282 9.24743 165.264 9.24743C167.889 9.24743 169.963 10.3494 169.963 14.8543V23.5401ZM186.135 22.2113C186.46 22.2113 186.589 22.5354 186.362 22.9567C185.487 24.7717 183.737 26.1004 180.918 26.1004C176.575 26.1004 173.074 23.1512 173.074 17.6415C173.074 12.2615 176.704 9.27984 180.529 9.27984C184.256 9.27984 187.205 11.8726 187.205 15.9562C187.205 17.1878 186.719 17.998 185.455 17.998H176.964C176.996 22.0816 178.454 24.9985 181.404 24.9985C183.057 24.9985 184.223 24.2855 185.066 22.6974C185.228 22.4057 185.325 22.2113 185.682 22.2113H186.135ZM183.64 16.7665C183.64 12.7801 182.765 10.3818 180.529 10.3818C178.228 10.3818 176.996 12.7801 176.964 16.7665H183.64ZM194.821 25.906L189.895 12.5856C189.474 11.4513 189.117 10.8355 188.145 10.6735L187.367 10.5762V9.53912H195.016V10.6086L194.173 10.6735C193.33 10.7707 193.104 11.4837 193.492 12.5856L196.863 21.9844L199.942 12.6504C200.299 11.4837 199.488 10.7707 198.516 10.6735L197.511 10.6086V9.53912H204.123V10.5762L203.377 10.6735C202.438 10.8355 201.66 11.2568 201.206 12.6504L196.733 25.906H194.821ZM208.822 6.97876C207.753 6.97876 206.845 6.1037 206.845 5.03418C206.845 3.96466 207.753 3.0896 208.822 3.0896C209.859 3.0896 210.767 3.96466 210.767 5.03418C210.767 6.1037 209.859 6.97876 208.822 6.97876ZM210.896 23.5401C210.896 24.3503 211.772 24.6096 212.873 24.7392V25.7763C210.345 25.6791 207.818 25.6791 205.29 25.7763V24.7392C206.359 24.6096 207.234 24.3503 207.234 23.5401V13.0718C207.234 11.9374 206.521 11.6457 205.257 11.7106V10.7059C208.239 10.2521 209.438 9.18261 210.216 9.18261C210.734 9.18261 211.091 9.44189 211.091 10.0253C211.091 11.0948 210.896 12.2939 210.896 14.3033V23.5401ZM227.361 22.2113C227.749 22.2113 227.944 22.5354 227.717 22.9567C226.81 24.7717 225.157 26.1004 222.369 26.1004C218.091 26.1004 214.494 23.0539 214.494 17.5767C214.494 12.3588 218.059 9.27984 222.013 9.27984C225.578 9.27984 227.976 11.2568 228.009 13.4931C228.009 14.2385 227.425 15.0812 226.259 15.0812C225.189 15.0812 224.509 14.4006 224.573 13.5579C224.638 11.9698 224.249 10.3818 222.369 10.3818C219.809 10.3818 218.48 13.0394 218.48 17.3498C218.48 21.8548 220.101 24.9985 222.661 24.9985C224.833 24.9985 225.87 23.767 226.194 22.5678C226.259 22.3085 226.421 22.2113 226.615 22.2113H227.361ZM233.194 6.97876C232.125 6.97876 231.217 6.1037 231.217 5.03418C231.217 3.96466 232.125 3.0896 233.194 3.0896C234.231 3.0896 235.139 3.96466 235.139 5.03418C235.139 6.1037 234.231 6.97876 233.194 6.97876ZM235.269 23.5401C235.269 24.3503 236.144 24.6096 237.246 24.7392V25.7763C234.718 25.6791 232.19 25.6791 229.662 25.7763V24.7392C230.731 24.6096 231.606 24.3503 231.606 23.5401V13.0718C231.606 11.9374 230.893 11.6457 229.629 11.7106V10.7059C232.611 10.2521 233.81 9.18261 234.588 9.18261C235.106 9.18261 235.463 9.44189 235.463 10.0253C235.463 11.0948 235.269 12.2939 235.269 14.3033V23.5401ZM246.385 9.27984C250.112 9.27984 253.969 12.0671 253.969 17.5119C253.969 23.1188 250.112 26.1004 246.45 26.1004C242.723 26.1004 238.866 23.1188 238.866 17.7712C238.866 12.0671 242.723 9.27984 246.385 9.27984ZM249.982 18.4518C249.982 13.6227 248.427 10.3818 245.931 10.3818C243.954 10.3818 242.852 12.4884 242.852 16.8313C242.852 21.6927 244.408 24.9985 246.871 24.9985C248.881 24.9985 249.982 22.8271 249.982 18.4518ZM270.692 22.3409C270.692 23.4753 271.405 23.7345 272.669 23.5401V24.5448C269.817 25.2254 268.618 26.1653 267.84 26.1653C267.257 26.1653 266.965 25.7439 267.03 25.0957L267.354 22.2437C266.641 23.3132 264.826 26.2301 261.812 26.2301C259.219 26.2301 256.983 24.9985 256.983 20.4936V11.9374C256.983 11.1272 256.724 10.8031 256.076 10.8355L255.103 10.8679V9.76599L259.835 9.40948C260.289 9.37707 260.645 9.60394 260.645 10.1225V20.3639C260.645 22.7947 261.002 24.5448 262.817 24.5448C265.118 24.5448 266.673 21.5307 267.03 20.7853V11.9374C267.03 11.1272 266.771 10.8031 266.122 10.8355L265.15 10.8679V9.76599L269.85 9.40948C270.368 9.37707 270.692 9.60394 270.692 10.1225V22.3409ZM285.828 21.3362C285.828 24.1559 283.105 26.1653 280.674 26.1653C278.503 26.1653 277.304 25.0309 276.332 25.0309C275.878 25.0309 275.619 25.2902 275.586 25.7439H274.549L274.16 21.3362H274.679C275.1 21.3362 275.456 21.401 275.586 21.8548C276.072 23.6373 278.535 25.1282 280.253 25.1282C281.744 25.1282 282.684 24.1235 282.684 22.7623C282.684 21.0121 281.161 20.2667 278.924 19.1324C276.656 17.998 274.128 16.5072 274.128 13.6551C274.128 11.192 276.234 9.27984 279.022 9.27984C281.161 9.27984 281.874 10.1873 282.716 10.1873C283.138 10.1873 283.397 9.96044 283.494 9.53912H284.564L284.855 13.7848H284.304C283.883 13.7848 283.656 13.6551 283.462 13.2662C282.651 11.4513 280.999 10.2521 279.508 10.2521C278.017 10.2521 277.142 11.3216 277.142 12.5532C277.142 14.0765 278.276 14.8219 280.123 15.7294C282.165 16.7017 285.828 18.1925 285.828 21.3362Z" fill="#F6F5F4"/>
<path d="M81.4554 43.6132C81.3146 43.9886 81.1768 44.3596 81.0419 44.7261C80.907 45.0927 80.7823 45.427 80.668 45.7291C80.5536 46.0312 80.4583 46.2878 80.382 46.499C80.3058 46.7101 80.2559 46.8479 80.2324 46.9125C80.2031 46.9887 80.1547 47.0503 80.0873 47.0972C80.0198 47.1441 79.945 47.1676 79.8629 47.1676C79.7808 47.1676 79.706 47.1441 79.6386 47.0972C79.5711 47.0503 79.5227 46.9887 79.4934 46.9125L77.5754 41.6864L75.6486 46.9125C75.6193 46.9887 75.5724 47.0503 75.5079 47.0972C75.4433 47.1441 75.37 47.1676 75.2879 47.1676C75.2058 47.1676 75.131 47.1441 75.0636 47.0972C74.9961 47.0503 74.9477 46.9887 74.9184 46.9125C74.8949 46.8479 74.8436 46.7101 74.7644 46.499C74.6852 46.2878 74.5899 46.0312 74.4785 45.7291C74.367 45.427 74.2439 45.0927 74.109 44.7261C73.9741 44.3596 73.8362 43.9885 73.6955 43.6132C73.5606 43.2436 73.4271 42.8815 73.2951 42.5266C73.1632 42.1717 73.0459 41.8521 72.9432 41.5676C72.8406 41.2831 72.7585 41.0485 72.6969 40.8638C72.6353 40.679 72.6045 40.5749 72.6045 40.5514C72.6045 40.4458 72.6426 40.3549 72.7189 40.2787C72.7951 40.2024 72.886 40.1643 72.9916 40.1643C73.0737 40.1643 73.1485 40.1878 73.216 40.2347C73.2834 40.2816 73.3318 40.3432 73.3611 40.4195L75.2879 45.6455L77.2059 40.4195C77.2352 40.3432 77.2836 40.2816 77.3511 40.2347C77.4185 40.1878 77.4933 40.1643 77.5754 40.1643C77.6575 40.1643 77.7309 40.1878 77.7954 40.2347C77.8599 40.2816 77.9068 40.3432 77.9361 40.4195L79.8629 45.6455L81.7809 40.4195C81.8102 40.3432 81.8586 40.2816 81.9261 40.2347C81.9935 40.1878 82.0683 40.1643 82.1504 40.1643C82.256 40.1643 82.3469 40.2024 82.4232 40.2787C82.4994 40.3549 82.5376 40.4458 82.5376 40.5514C82.5376 40.5749 82.5068 40.679 82.4452 40.8638C82.3836 41.0485 82.3015 41.2831 82.1988 41.5676C82.0962 41.8521 81.9803 42.1717 81.8513 42.5266C81.7222 42.8815 81.5903 43.2436 81.4554 43.6132ZM91.8803 47.1676L88.8537 47.1676C88.7423 47.1676 88.6484 47.1295 88.5722 47.0532C88.4959 46.977 88.4578 46.8861 88.4578 46.7805V46.7629V46.7453V40.613C88.4578 40.5074 88.4959 40.4165 88.5722 40.3403C88.6484 40.264 88.7423 40.2259 88.8537 40.2259H91.8803C91.9917 40.2259 92.0856 40.264 92.1618 40.3403C92.2381 40.4165 92.2762 40.5074 92.2762 40.613C92.2762 40.7244 92.2381 40.8168 92.1618 40.8901C92.0856 40.9635 91.9917 41.0001 91.8803 41.0001H89.2408V43.2436H91.4668C91.5723 43.2436 91.6632 43.2803 91.7395 43.3536C91.8157 43.4269 91.8539 43.5193 91.8539 43.6308C91.8539 43.7363 91.8157 43.8272 91.7395 43.9035C91.6632 43.9798 91.5723 44.0179 91.4668 44.0179H89.2408V46.3846H91.8803C91.9917 46.3846 92.0856 46.4227 92.1618 46.4989C92.2381 46.5752 92.2762 46.669 92.2762 46.7805C92.2762 46.8861 92.2381 46.977 92.1618 47.0532C92.0856 47.1295 91.9917 47.1676 91.8803 47.1676ZM100.906 47.1676L99.0323 47.1676C98.9208 47.1676 98.827 47.1295 98.7507 47.0532C98.6745 46.977 98.6363 46.8861 98.6363 46.7805V40.613C98.6363 40.5074 98.6745 40.4165 98.7507 40.3403C98.827 40.264 98.9208 40.2259 99.0323 40.2259H100.317C100.54 40.2259 100.751 40.2684 100.95 40.3535C101.15 40.4385 101.323 40.5544 101.469 40.701C101.616 40.8476 101.732 41.0207 101.817 41.2201C101.902 41.4195 101.944 41.6307 101.944 41.8536C101.944 42.2055 101.839 42.5281 101.628 42.8214C101.856 42.8976 102.065 43.0017 102.252 43.1337C102.44 43.2657 102.601 43.4226 102.736 43.6044C102.871 43.7862 102.977 43.9871 103.053 44.2071C103.129 44.427 103.167 44.6602 103.167 44.9065C103.167 45.2174 103.109 45.5106 102.991 45.7863C102.874 46.062 102.713 46.3025 102.508 46.5078C102.302 46.7131 102.062 46.8744 101.786 46.9917C101.51 47.109 101.217 47.1676 100.906 47.1676ZM100.317 41.0001H99.4194V42.6982H100.405C100.499 42.6982 100.591 42.6732 100.682 42.6234C100.773 42.5735 100.853 42.509 100.924 42.4298C100.994 42.3506 101.051 42.2612 101.095 42.1615C101.139 42.0618 101.161 41.9591 101.161 41.8535C101.161 41.7362 101.139 41.6263 101.095 41.5236C101.051 41.421 100.991 41.3301 100.915 41.2509C100.839 41.1717 100.749 41.1101 100.647 41.0661C100.544 41.0221 100.434 41.0001 100.317 41.0001ZM100.906 43.4812L99.4194 43.4812V46.3846H100.906C101.112 46.3846 101.304 46.3464 101.483 46.2702C101.661 46.1939 101.818 46.0884 101.953 45.9535C102.088 45.8186 102.194 45.6617 102.27 45.4828C102.346 45.3039 102.384 45.1118 102.384 44.9065C102.384 44.7012 102.345 44.5106 102.266 44.3346C102.186 44.1586 102.081 44.0076 101.949 43.8815C101.817 43.7554 101.66 43.6571 101.478 43.5868C101.296 43.5164 101.106 43.4812 100.906 43.4812ZM124.624 47.1676C124.519 47.1676 124.428 47.1295 124.351 47.0532C124.275 46.977 124.237 46.8861 124.237 46.7805V42.1967L121.932 46.9477C121.897 47.0122 121.847 47.065 121.782 47.106C121.718 47.1471 121.65 47.1676 121.58 47.1676C121.51 47.1676 121.442 47.1471 121.378 47.106C121.313 47.065 121.263 47.0122 121.228 46.9477L118.923 42.1967V46.7805C118.923 46.8861 118.886 46.977 118.813 47.0532C118.74 47.1295 118.647 47.1676 118.536 47.1676C118.43 47.1676 118.339 47.1295 118.263 47.0532C118.187 46.977 118.149 46.8861 118.149 46.7805V40.613C118.149 40.5074 118.187 40.4165 118.263 40.3403C118.339 40.264 118.43 40.2259 118.536 40.2259C118.694 40.2259 118.812 40.2963 118.888 40.437L121.58 45.9007L124.272 40.437C124.349 40.2963 124.466 40.2259 124.624 40.2259C124.73 40.2259 124.821 40.264 124.897 40.3403C124.973 40.4165 125.011 40.5074 125.011 40.613V46.7805C125.011 46.8861 124.973 46.977 124.897 47.0532C124.821 47.1295 124.73 47.1676 124.624 47.1676ZM137.143 47.1324C137.096 47.1559 137.046 47.1676 136.994 47.1676C136.917 47.1676 136.845 47.1471 136.778 47.106C136.711 47.065 136.662 47.0063 136.633 46.9301L135.938 45.2936H132.744L132.049 46.9301C132.008 47.0298 131.938 47.1001 131.838 47.1412C131.738 47.1823 131.638 47.1793 131.539 47.1324C131.439 47.0914 131.369 47.021 131.328 46.9213C131.286 46.8216 131.289 46.7218 131.336 46.6221L132.128 44.7481L133.985 40.4019C134.014 40.3256 134.061 40.267 134.125 40.2259C134.19 40.1848 134.263 40.1643 134.345 40.1643C134.422 40.1643 134.492 40.1848 134.556 40.2259C134.621 40.267 134.668 40.3256 134.697 40.4019C135.143 41.4459 135.586 42.4826 136.026 43.512C136.466 44.5414 136.908 45.5781 137.354 46.6221C137.395 46.7218 137.395 46.8216 137.354 46.9213C137.313 47.021 137.243 47.0914 137.143 47.1324ZM134.345 41.5544L133.078 44.5106H135.603L134.345 41.5544ZM146.222 47.1676L144.058 47.1676C143.987 47.1676 143.92 47.1471 143.855 47.106C143.791 47.0649 143.744 47.0122 143.714 46.9476C143.662 46.8538 143.656 46.7482 143.697 46.6309V40.613C143.697 40.5074 143.735 40.4165 143.811 40.3403C143.887 40.264 143.981 40.2259 144.093 40.2259H146.213C146.676 40.2259 147.099 40.3256 147.48 40.525C147.861 40.7244 148.187 40.9855 148.457 41.308C148.726 41.6306 148.935 41.9972 149.081 42.4078C149.228 42.8184 149.301 43.2348 149.301 43.6571C149.301 44.1792 149.212 44.6557 149.033 45.0868C148.854 45.5179 148.619 45.8875 148.329 46.1954C148.039 46.5033 147.709 46.7423 147.339 46.9124C146.97 47.0826 146.597 47.1676 146.222 47.1676ZM146.213 41.0001L144.48 41.0001V46.3933H146.222C146.556 46.3933 146.863 46.3127 147.141 46.1514C147.42 45.9901 147.662 45.7804 147.867 45.5223C148.072 45.2642 148.232 44.971 148.347 44.6425C148.461 44.314 148.518 43.9856 148.518 43.6571C148.518 43.3228 148.462 42.9958 148.351 42.6761C148.24 42.3565 148.083 42.072 147.88 41.8227C147.678 41.5734 147.435 41.374 147.15 41.2244C146.866 41.0749 146.553 41.0001 146.213 41.0001ZM159.401 47.1676L156.374 47.1676C156.263 47.1676 156.169 47.1295 156.092 47.0532C156.016 46.977 155.978 46.8861 155.978 46.7805V46.7629V46.7453V40.613C155.978 40.5074 156.016 40.4165 156.092 40.3403C156.169 40.264 156.263 40.2259 156.374 40.2259H159.401C159.512 40.2259 159.606 40.264 159.682 40.3403C159.758 40.4165 159.796 40.5074 159.796 40.613C159.796 40.7244 159.758 40.8168 159.682 40.8901C159.606 40.9635 159.512 41.0001 159.401 41.0001H156.761V43.2436H158.987C159.093 43.2436 159.184 43.2803 159.26 43.3536C159.336 43.4269 159.374 43.5193 159.374 43.6308C159.374 43.7363 159.336 43.8272 159.26 43.9035C159.184 43.9798 159.093 44.0179 158.987 44.0179H156.761V46.3846H159.401C159.512 46.3846 159.606 46.4227 159.682 46.4989C159.758 46.5752 159.796 46.669 159.796 46.7805C159.796 46.8861 159.758 46.977 159.682 47.0532C159.606 47.1295 159.512 47.1676 159.401 47.1676ZM178.077 47.1676L175.051 47.1676C174.939 47.1676 174.845 47.1295 174.769 47.0532C174.693 46.977 174.655 46.8861 174.655 46.7805V46.7629V46.7453V40.613C174.655 40.5074 174.693 40.4165 174.769 40.3403C174.845 40.264 174.939 40.2259 175.051 40.2259H178.077C178.189 40.2259 178.282 40.264 178.359 40.3403C178.435 40.4165 178.473 40.5074 178.473 40.613C178.473 40.7244 178.435 40.8168 178.359 40.8901C178.282 40.9635 178.189 41.0001 178.077 41.0001H175.438V43.2436H177.664C177.769 43.2436 177.86 43.2803 177.936 43.3536C178.013 43.4269 178.051 43.5193 178.051 43.6308C178.051 43.7363 178.013 43.8272 177.936 43.9035C177.86 43.9798 177.769 44.0179 177.664 44.0179H175.438V46.3846H178.077C178.189 46.3846 178.282 46.4227 178.359 46.4989C178.435 46.5752 178.473 46.669 178.473 46.7805C178.473 46.8861 178.435 46.977 178.359 47.0532C178.282 47.1295 178.189 47.1676 178.077 47.1676ZM190.095 47.1324C190.048 47.1559 189.998 47.1676 189.945 47.1676C189.869 47.1676 189.797 47.1471 189.729 47.106C189.662 47.065 189.614 47.0063 189.584 46.9301L188.889 45.2936H185.696L185 46.9301C184.959 47.0298 184.889 47.1001 184.789 47.1412C184.69 47.1823 184.59 47.1793 184.49 47.1324C184.39 47.0914 184.32 47.021 184.279 46.9213C184.238 46.8216 184.241 46.7218 184.288 46.6221L185.08 44.7481L186.936 40.4019C186.965 40.3256 187.012 40.267 187.077 40.2259C187.141 40.1848 187.215 40.1643 187.297 40.1643C187.373 40.1643 187.443 40.1848 187.508 40.2259C187.572 40.267 187.619 40.3256 187.649 40.4019C188.094 41.4459 188.537 42.4826 188.977 43.512C189.417 44.5414 189.86 45.5781 190.306 46.6221C190.347 46.7218 190.347 46.8216 190.306 46.9213C190.265 47.021 190.194 47.0914 190.095 47.1324ZM187.297 41.5544L186.03 44.5106H188.555L187.297 41.5544ZM198.373 47.1676C198.103 47.1676 197.851 47.1163 197.616 47.0136C197.381 46.911 197.176 46.7717 197 46.5957C196.824 46.4198 196.685 46.2145 196.582 45.9799C196.48 45.7452 196.428 45.493 196.428 45.2232C196.428 45.1118 196.466 45.0179 196.543 44.9417C196.619 44.8654 196.713 44.8273 196.824 44.8273C196.93 44.8273 197.021 44.8654 197.097 44.9417C197.173 45.0179 197.211 45.1118 197.211 45.2232C197.211 45.3816 197.242 45.5312 197.304 45.6719C197.365 45.8127 197.449 45.9359 197.554 46.0414C197.66 46.147 197.783 46.2306 197.924 46.2922C198.065 46.3538 198.214 46.3846 198.373 46.3846C198.531 46.3846 198.682 46.3538 198.826 46.2922C198.97 46.2306 199.094 46.147 199.2 46.0414C199.305 45.9359 199.389 45.8127 199.45 45.6719C199.512 45.5312 199.543 45.3816 199.543 45.2232C199.543 45.0297 199.505 44.8698 199.428 44.7437C199.352 44.6176 199.247 44.5076 199.112 44.4138C199.047 44.3669 198.974 44.3243 198.892 44.2862C198.81 44.2481 198.725 44.2085 198.637 44.1675C198.549 44.1323 198.458 44.0971 198.364 44.0619C198.27 44.0267 198.173 43.9915 198.074 43.9563C197.88 43.8859 197.685 43.8067 197.489 43.7187C197.292 43.6308 197.116 43.5208 196.961 43.3888C196.805 43.2568 196.678 43.0926 196.578 42.8961C196.478 42.6996 196.428 42.4577 196.428 42.1703C196.428 41.9005 196.48 41.6482 196.582 41.4136C196.685 41.179 196.824 40.9737 197 40.7978C197.176 40.6218 197.381 40.4825 197.616 40.3799C197.851 40.2772 198.103 40.2259 198.373 40.2259C198.643 40.2259 198.896 40.2772 199.134 40.3799C199.371 40.4825 199.578 40.6218 199.754 40.7978C199.93 40.9737 200.069 41.179 200.172 41.4136C200.275 41.6483 200.326 41.9005 200.326 42.1703C200.326 42.2759 200.288 42.3668 200.212 42.443C200.135 42.5193 200.041 42.5574 199.93 42.5574C199.824 42.5574 199.733 42.5193 199.657 42.443C199.581 42.3668 199.543 42.2759 199.543 42.1703C199.543 42.0119 199.512 41.8609 199.45 41.7172C199.389 41.5735 199.305 41.4488 199.2 41.3433C199.094 41.2377 198.97 41.1541 198.826 41.0925C198.682 41.0309 198.531 41.0001 198.373 41.0001C198.214 41.0001 198.065 41.0309 197.924 41.0925C197.783 41.1541 197.66 41.2377 197.554 41.3433C197.449 41.4488 197.365 41.5735 197.304 41.7172C197.242 41.8609 197.211 42.0119 197.211 42.1703C197.211 42.3462 197.248 42.4929 197.321 42.6102C197.395 42.7275 197.499 42.8301 197.634 42.9181C197.774 43.0061 197.933 43.0853 198.109 43.1557L198.39 43.2612L198.681 43.3668C198.874 43.4372 199.069 43.5179 199.266 43.6088C199.462 43.6997 199.638 43.8141 199.794 43.9519C199.949 44.0897 200.077 44.2613 200.176 44.4666C200.276 44.6719 200.326 44.9241 200.326 45.2232C200.326 45.493 200.275 45.7453 200.172 45.9799C200.069 46.2145 199.93 46.4198 199.754 46.5957C199.578 46.7717 199.371 46.911 199.134 47.0136C198.896 47.1163 198.643 47.1676 198.373 47.1676ZM211.147 40.8066L209.15 44.3786V46.7805C209.15 46.8861 209.111 46.977 209.035 47.0532C208.959 47.1295 208.868 47.1676 208.762 47.1676C208.657 47.1676 208.566 47.1295 208.49 47.0532C208.413 46.977 208.375 46.8861 208.375 46.7805V44.3786L206.378 40.8066C206.343 40.7479 206.325 40.6834 206.325 40.613C206.325 40.5074 206.363 40.4165 206.44 40.3403C206.516 40.264 206.607 40.2259 206.712 40.2259C206.783 40.2259 206.849 40.2435 206.91 40.2787C206.972 40.3139 207.02 40.3608 207.056 40.4195L208.762 43.4724L210.469 40.4195C210.504 40.3608 210.553 40.3139 210.614 40.2787C210.676 40.2435 210.742 40.2259 210.812 40.2259C210.918 40.2259 211.009 40.264 211.085 40.3403C211.161 40.4165 211.199 40.5074 211.199 40.613C211.199 40.6834 211.182 40.7479 211.147 40.8066Z" fill="#F6F5F4"/>
</g>
<defs>
<clipPath id="clip0_169_5">
<rect width="285.828" height="50" fill="white"/>
</clipPath>
</defs>
</svg>
