<svg width="70" height="64" viewBox="0 0 70 64" fill="none" xmlns="http://www.w3.org/2000/svg">
<g clip-path="url(#clip0_1_107)">
<path fill-rule="evenodd" clip-rule="evenodd" d="M19.25 0.495117C27.9487 0.495117 35 7.54639 35 16.2451V0.495117H50.75C59.4487 0.495117 66.5 7.54639 66.5 16.2451C66.5 24.9438 59.4487 31.9951 50.75 31.9951C59.4487 31.9951 66.5 39.0464 66.5 47.7451C66.5051 51.8943 64.8675 55.8767 61.9451 58.8221L61.8868 58.8819L61.8348 58.9339C58.8886 61.8605 54.9028 63.5006 50.75 63.4951C48.6565 63.498 46.5835 63.0822 44.6531 62.2721C42.7226 61.462 40.9737 60.274 39.5092 58.778C36.6143 55.8361 34.9944 51.8725 35 47.7451C35 56.4438 27.9487 63.4951 19.25 63.4951C10.5513 63.4951 3.5 56.4438 3.5 47.7451V31.9951H19.25C10.5513 31.9951 3.5 24.9438 3.5 16.2451C3.5 7.54639 10.5513 0.495117 19.25 0.495117ZM31.85 16.2451C31.85 19.5868 30.5225 22.7917 28.1595 25.1547C25.7966 27.5176 22.5917 28.8451 19.25 28.8451V3.64512C22.5917 3.64512 25.7966 4.97261 28.1595 7.33557C30.5225 9.69853 31.85 12.9034 31.85 16.2451ZM63.35 47.7451C63.35 44.4034 62.0225 41.1985 59.6595 38.8356C57.2966 36.4726 54.0917 35.1451 50.75 35.1451C47.4083 35.1451 44.2034 36.4726 41.8405 38.8356C39.4775 41.1985 38.15 44.4034 38.15 47.7451H63.35ZM6.65 35.1451V47.7451C6.65 51.0868 7.9775 54.2917 10.3405 56.6547C12.7034 59.0176 15.9083 60.3451 19.25 60.3451C22.5917 60.3451 25.7966 59.0176 28.1595 56.6547C30.5225 54.2917 31.85 51.0868 31.85 47.7451V35.1451H6.65ZM38.15 28.8451V3.64512H50.75C54.0917 3.64512 57.2966 4.97261 59.6595 7.33557C62.0225 9.69853 63.35 12.9034 63.35 16.2451C63.35 19.5868 62.0225 22.7917 59.6595 25.1547C57.2966 27.5176 54.0917 28.8451 50.75 28.8451H38.15Z" fill="#5417D7"/>
</g>
<defs>
<clipPath id="clip0_1_107">
<rect width="63" height="63" fill="white" transform="translate(3.5 0.495117)"/>
</clipPath>
</defs>
</svg>
