<svg width="25" height="20" viewBox="0 0 25 20" fill="none" xmlns="http://www.w3.org/2000/svg">
<path id="Vector" d="M24.2675 2.33997C23.4013 2.73372 22.4675 2.99247 21.5 3.11622C22.49 2.51997 23.255 1.57497 23.615 0.438716C22.6813 1.00122 21.6463 1.39497 20.555 1.61997C19.6663 0.652466 18.4175 0.0899658 17 0.0899658C14.3563 0.0899658 12.1963 2.24997 12.1963 4.91622C12.1963 5.29872 12.2413 5.66997 12.32 6.01872C8.31501 5.81622 4.74876 3.89247 2.37501 0.978716C1.95876 1.68747 1.72251 2.51997 1.72251 3.39747C1.72251 5.07372 2.56626 6.55872 3.87126 7.40247C3.07251 7.40247 2.33001 7.17747 1.67751 6.83997V6.87372C1.67751 9.21372 3.34251 11.1712 5.54751 11.61C4.83958 11.8037 4.09637 11.8307 3.37626 11.6887C3.68182 12.6478 4.28024 13.4869 5.08741 14.0883C5.89457 14.6896 6.86989 15.0229 7.87626 15.0412C6.17035 16.3917 4.05576 17.1217 1.88001 17.1112C1.49751 17.1112 1.11501 17.0887 0.732513 17.0437C2.87001 18.4162 5.41251 19.215 8.13501 19.215C17 19.215 21.8713 11.8575 21.8713 5.47872C21.8713 5.26497 21.8713 5.06247 21.86 4.84872C22.805 4.17372 23.615 3.31872 24.2675 2.33997Z" fill="#1DA1F2"/>
</svg>
